solid ASCII
  facet normal 0.000000e+00 0.000000e+00 1.000000e+00
    outer loop
      vertex   1.000000e+00 -1.900000e+01 2.500000e+00
      vertex   2.200000e+01 -1.900000e+01 2.500000e+00
      vertex   1.000000e+00 -1.000000e+00 2.500000e+00
    endloop
  endfacet
  facet normal -0.000000e+00 0.000000e+00 1.000000e+00
    outer loop
      vertex   1.000000e+00 -1.000000e+00 2.500000e+00
      vertex   2.200000e+01 -1.900000e+01 2.500000e+00
      vertex   2.200000e+01 -1.000000e+00 2.500000e+00
    endloop
  endfacet
  facet normal 0.000000e+00 -1.000000e+00 0.000000e+00
    outer loop
      vertex   1.000000e+00 -1.000000e+00 2.500000e+00
      vertex   2.200000e+01 -1.000000e+00 2.500000e+00
      vertex   1.000000e+00 -1.000000e+00 4.000000e+00
    endloop
  endfacet
  facet normal 0.000000e+00 -1.000000e+00 0.000000e+00
    outer loop
      vertex   1.000000e+00 -1.000000e+00 4.000000e+00
      vertex   2.200000e+01 -1.000000e+00 2.500000e+00
      vertex   2.200000e+01 -1.000000e+00 4.000000e+00
    endloop
  endfacet
  facet normal 1.000000e+00 0.000000e+00 0.000000e+00
    outer loop
      vertex   1.000000e+00 -1.900000e+01 2.500000e+00
      vertex   1.000000e+00 -1.000000e+00 2.500000e+00
      vertex   1.000000e+00 -1.900000e+01 4.000000e+00
    endloop
  endfacet
  facet normal 1.000000e+00 -0.000000e+00 0.000000e+00
    outer loop
      vertex   1.000000e+00 -1.900000e+01 4.000000e+00
      vertex   1.000000e+00 -1.000000e+00 2.500000e+00
      vertex   1.000000e+00 -1.000000e+00 4.000000e+00
    endloop
  endfacet
  facet normal -1.000000e+00 0.000000e+00 0.000000e+00
    outer loop
      vertex   2.200000e+01 -1.000000e+00 2.500000e+00
      vertex   2.200000e+01 -1.900000e+01 2.500000e+00
      vertex   2.200000e+01 -1.000000e+00 4.000000e+00
    endloop
  endfacet
  facet normal -1.000000e+00 -0.000000e+00 0.000000e+00
    outer loop
      vertex   2.200000e+01 -1.000000e+00 4.000000e+00
      vertex   2.200000e+01 -1.900000e+01 2.500000e+00
      vertex   2.200000e+01 -1.900000e+01 4.000000e+00
    endloop
  endfacet
  facet normal 0.000000e+00 1.000000e+00 -0.000000e+00
    outer loop
      vertex   2.200000e+01 -1.900000e+01 2.500000e+00
      vertex   1.000000e+00 -1.900000e+01 2.500000e+00
      vertex   2.200000e+01 -1.900000e+01 4.000000e+00
    endloop
  endfacet
  facet normal 0.000000e+00 1.000000e+00 0.000000e+00
    outer loop
      vertex   2.200000e+01 -1.900000e+01 4.000000e+00
      vertex   1.000000e+00 -1.900000e+01 2.500000e+00
      vertex   1.000000e+00 -1.900000e+01 4.000000e+00
    endloop
  endfacet
  facet normal 0.000000e+00 0.000000e+00 1.000000e+00
    outer loop
      vertex   3.100000e+01 1.200000e+01 2.500000e+00
      vertex   2.400000e+01 1.200000e+01 2.500000e+00
      vertex   3.100000e+01 -1.200000e+01 2.500000e+00
    endloop
  endfacet
  facet normal 0.000000e+00 0.000000e+00 1.000000e+00
    outer loop
      vertex   3.100000e+01 -1.200000e+01 2.500000e+00
      vertex   2.400000e+01 1.200000e+01 2.500000e+00
      vertex   2.400000e+01 -1.200000e+01 2.500000e+00
    endloop
  endfacet
  facet normal 0.000000e+00 1.000000e+00 -0.000000e+00
    outer loop
      vertex   3.100000e+01 -1.200000e+01 2.500000e+00
      vertex   2.400000e+01 -1.200000e+01 2.500000e+00
      vertex   3.100000e+01 -1.200000e+01 4.000000e+00
    endloop
  endfacet
  facet normal 0.000000e+00 1.000000e+00 0.000000e+00
    outer loop
      vertex   3.100000e+01 -1.200000e+01 4.000000e+00
      vertex   2.400000e+01 -1.200000e+01 2.500000e+00
      vertex   2.400000e+01 -1.200000e+01 4.000000e+00
    endloop
  endfacet
  facet normal -1.000000e+00 0.000000e+00 0.000000e+00
    outer loop
      vertex   3.100000e+01 1.200000e+01 2.500000e+00
      vertex   3.100000e+01 -1.200000e+01 2.500000e+00
      vertex   3.100000e+01 1.200000e+01 4.000000e+00
    endloop
  endfacet
  facet normal -1.000000e+00 -0.000000e+00 0.000000e+00
    outer loop
      vertex   3.100000e+01 1.200000e+01 4.000000e+00
      vertex   3.100000e+01 -1.200000e+01 2.500000e+00
      vertex   3.100000e+01 -1.200000e+01 4.000000e+00
    endloop
  endfacet
  facet normal 1.000000e+00 0.000000e+00 0.000000e+00
    outer loop
      vertex   2.400000e+01 -1.200000e+01 2.500000e+00
      vertex   2.400000e+01 1.200000e+01 2.500000e+00
      vertex   2.400000e+01 -1.200000e+01 4.000000e+00
    endloop
  endfacet
  facet normal 1.000000e+00 -0.000000e+00 0.000000e+00
    outer loop
      vertex   2.400000e+01 -1.200000e+01 4.000000e+00
      vertex   2.400000e+01 1.200000e+01 2.500000e+00
      vertex   2.400000e+01 1.200000e+01 4.000000e+00
    endloop
  endfacet
  facet normal 0.000000e+00 -1.000000e+00 0.000000e+00
    outer loop
      vertex   2.400000e+01 1.200000e+01 2.500000e+00
      vertex   3.100000e+01 1.200000e+01 2.500000e+00
      vertex   2.400000e+01 1.200000e+01 4.000000e+00
    endloop
  endfacet
  facet normal 0.000000e+00 -1.000000e+00 0.000000e+00
    outer loop
      vertex   2.400000e+01 1.200000e+01 4.000000e+00
      vertex   3.100000e+01 1.200000e+01 2.500000e+00
      vertex   3.100000e+01 1.200000e+01 4.000000e+00
    endloop
  endfacet
  facet normal 0.000000e+00 0.000000e+00 1.000000e+00
    outer loop
      vertex   -1.000000e+00 3.800000e+01 2.500000e+00
      vertex   -3.100000e+01 3.800000e+01 2.500000e+00
      vertex   -1.000000e+00 2.100000e+01 2.500000e+00
    endloop
  endfacet
  facet normal 0.000000e+00 0.000000e+00 1.000000e+00
    outer loop
      vertex   -1.000000e+00 2.100000e+01 2.500000e+00
      vertex   -3.100000e+01 3.800000e+01 2.500000e+00
      vertex   -3.100000e+01 2.100000e+01 2.500000e+00
    endloop
  endfacet
  facet normal 0.000000e+00 1.000000e+00 -0.000000e+00
    outer loop
      vertex   -1.000000e+00 2.100000e+01 2.500000e+00
      vertex   -3.100000e+01 2.100000e+01 2.500000e+00
      vertex   -1.000000e+00 2.100000e+01 4.000000e+00
    endloop
  endfacet
  facet normal 0.000000e+00 1.000000e+00 0.000000e+00
    outer loop
      vertex   -1.000000e+00 2.100000e+01 4.000000e+00
      vertex   -3.100000e+01 2.100000e+01 2.500000e+00
      vertex   -3.100000e+01 2.100000e+01 4.000000e+00
    endloop
  endfacet
  facet normal -1.000000e+00 0.000000e+00 0.000000e+00
    outer loop
      vertex   -1.000000e+00 3.800000e+01 2.500000e+00
      vertex   -1.000000e+00 2.100000e+01 2.500000e+00
      vertex   -1.000000e+00 3.800000e+01 4.000000e+00
    endloop
  endfacet
  facet normal -1.000000e+00 -0.000000e+00 0.000000e+00
    outer loop
      vertex   -1.000000e+00 3.800000e+01 4.000000e+00
      vertex   -1.000000e+00 2.100000e+01 2.500000e+00
      vertex   -1.000000e+00 2.100000e+01 4.000000e+00
    endloop
  endfacet
  facet normal 1.000000e+00 0.000000e+00 0.000000e+00
    outer loop
      vertex   -3.100000e+01 2.100000e+01 2.500000e+00
      vertex   -3.100000e+01 3.800000e+01 2.500000e+00
      vertex   -3.100000e+01 2.100000e+01 4.000000e+00
    endloop
  endfacet
  facet normal 1.000000e+00 -0.000000e+00 0.000000e+00
    outer loop
      vertex   -3.100000e+01 2.100000e+01 4.000000e+00
      vertex   -3.100000e+01 3.800000e+01 2.500000e+00
      vertex   -3.100000e+01 3.800000e+01 4.000000e+00
    endloop
  endfacet
  facet normal 0.000000e+00 -1.000000e+00 0.000000e+00
    outer loop
      vertex   -3.100000e+01 3.800000e+01 2.500000e+00
      vertex   -1.000000e+00 3.800000e+01 2.500000e+00
      vertex   -3.100000e+01 3.800000e+01 4.000000e+00
    endloop
  endfacet
  facet normal 0.000000e+00 -1.000000e+00 0.000000e+00
    outer loop
      vertex   -3.100000e+01 3.800000e+01 4.000000e+00
      vertex   -1.000000e+00 3.800000e+01 2.500000e+00
      vertex   -1.000000e+00 3.800000e+01 4.000000e+00
    endloop
  endfacet
  facet normal 0.000000e+00 0.000000e+00 1.000000e+00
    outer loop
      vertex   -1.000000e+00 1.900000e+01 2.500000e+00
      vertex   -2.200000e+01 1.900000e+01 2.500000e+00
      vertex   -1.000000e+00 1.000000e+00 2.500000e+00
    endloop
  endfacet
  facet normal 0.000000e+00 0.000000e+00 1.000000e+00
    outer loop
      vertex   -1.000000e+00 1.000000e+00 2.500000e+00
      vertex   -2.200000e+01 1.900000e+01 2.500000e+00
      vertex   -2.200000e+01 1.000000e+00 2.500000e+00
    endloop
  endfacet
  facet normal 0.000000e+00 1.000000e+00 -0.000000e+00
    outer loop
      vertex   -1.000000e+00 1.000000e+00 2.500000e+00
      vertex   -2.200000e+01 1.000000e+00 2.500000e+00
      vertex   -1.000000e+00 1.000000e+00 4.000000e+00
    endloop
  endfacet
  facet normal 0.000000e+00 1.000000e+00 0.000000e+00
    outer loop
      vertex   -1.000000e+00 1.000000e+00 4.000000e+00
      vertex   -2.200000e+01 1.000000e+00 2.500000e+00
      vertex   -2.200000e+01 1.000000e+00 4.000000e+00
    endloop
  endfacet
  facet normal -1.000000e+00 0.000000e+00 0.000000e+00
    outer loop
      vertex   -1.000000e+00 1.900000e+01 2.500000e+00
      vertex   -1.000000e+00 1.000000e+00 2.500000e+00
      vertex   -1.000000e+00 1.900000e+01 4.000000e+00
    endloop
  endfacet
  facet normal -1.000000e+00 -0.000000e+00 0.000000e+00
    outer loop
      vertex   -1.000000e+00 1.900000e+01 4.000000e+00
      vertex   -1.000000e+00 1.000000e+00 2.500000e+00
      vertex   -1.000000e+00 1.000000e+00 4.000000e+00
    endloop
  endfacet
  facet normal 1.000000e+00 0.000000e+00 0.000000e+00
    outer loop
      vertex   -2.200000e+01 1.000000e+00 2.500000e+00
      vertex   -2.200000e+01 1.900000e+01 2.500000e+00
      vertex   -2.200000e+01 1.000000e+00 4.000000e+00
    endloop
  endfacet
  facet normal 1.000000e+00 -0.000000e+00 0.000000e+00
    outer loop
      vertex   -2.200000e+01 1.000000e+00 4.000000e+00
      vertex   -2.200000e+01 1.900000e+01 2.500000e+00
      vertex   -2.200000e+01 1.900000e+01 4.000000e+00
    endloop
  endfacet
  facet normal 0.000000e+00 -1.000000e+00 0.000000e+00
    outer loop
      vertex   -2.200000e+01 1.900000e+01 2.500000e+00
      vertex   -1.000000e+00 1.900000e+01 2.500000e+00
      vertex   -2.200000e+01 1.900000e+01 4.000000e+00
    endloop
  endfacet
  facet normal 0.000000e+00 -1.000000e+00 0.000000e+00
    outer loop
      vertex   -2.200000e+01 1.900000e+01 4.000000e+00
      vertex   -1.000000e+00 1.900000e+01 2.500000e+00
      vertex   -1.000000e+00 1.900000e+01 4.000000e+00
    endloop
  endfacet
  facet normal 0.000000e+00 0.000000e+00 1.000000e+00
    outer loop
      vertex   -1.000000e+00 -2.100000e+01 2.500000e+00
      vertex   -3.100000e+01 -2.100000e+01 2.500000e+00
      vertex   -1.000000e+00 -3.900000e+01 2.500000e+00
    endloop
  endfacet
  facet normal 0.000000e+00 0.000000e+00 1.000000e+00
    outer loop
      vertex   -1.000000e+00 -3.900000e+01 2.500000e+00
      vertex   -3.100000e+01 -2.100000e+01 2.500000e+00
      vertex   -3.100000e+01 -3.900000e+01 2.500000e+00
    endloop
  endfacet
  facet normal 0.000000e+00 1.000000e+00 -0.000000e+00
    outer loop
      vertex   -1.000000e+00 -3.900000e+01 2.500000e+00
      vertex   -3.100000e+01 -3.900000e+01 2.500000e+00
      vertex   -1.000000e+00 -3.900000e+01 4.000000e+00
    endloop
  endfacet
  facet normal 0.000000e+00 1.000000e+00 0.000000e+00
    outer loop
      vertex   -1.000000e+00 -3.900000e+01 4.000000e+00
      vertex   -3.100000e+01 -3.900000e+01 2.500000e+00
      vertex   -3.100000e+01 -3.900000e+01 4.000000e+00
    endloop
  endfacet
  facet normal -1.000000e+00 0.000000e+00 0.000000e+00
    outer loop
      vertex   -1.000000e+00 -2.100000e+01 2.500000e+00
      vertex   -1.000000e+00 -3.900000e+01 2.500000e+00
      vertex   -1.000000e+00 -2.100000e+01 4.000000e+00
    endloop
  endfacet
  facet normal -1.000000e+00 -0.000000e+00 0.000000e+00
    outer loop
      vertex   -1.000000e+00 -2.100000e+01 4.000000e+00
      vertex   -1.000000e+00 -3.900000e+01 2.500000e+00
      vertex   -1.000000e+00 -3.900000e+01 4.000000e+00
    endloop
  endfacet
  facet normal 1.000000e+00 0.000000e+00 0.000000e+00
    outer loop
      vertex   -3.100000e+01 -3.900000e+01 2.500000e+00
      vertex   -3.100000e+01 -2.100000e+01 2.500000e+00
      vertex   -3.100000e+01 -3.900000e+01 4.000000e+00
    endloop
  endfacet
  facet normal 1.000000e+00 -0.000000e+00 0.000000e+00
    outer loop
      vertex   -3.100000e+01 -3.900000e+01 4.000000e+00
      vertex   -3.100000e+01 -2.100000e+01 2.500000e+00
      vertex   -3.100000e+01 -2.100000e+01 4.000000e+00
    endloop
  endfacet
  facet normal 0.000000e+00 -1.000000e+00 0.000000e+00
    outer loop
      vertex   -3.100000e+01 -2.100000e+01 2.500000e+00
      vertex   -1.000000e+00 -2.100000e+01 2.500000e+00
      vertex   -3.100000e+01 -2.100000e+01 4.000000e+00
    endloop
  endfacet
  facet normal 0.000000e+00 -1.000000e+00 0.000000e+00
    outer loop
      vertex   -3.100000e+01 -2.100000e+01 4.000000e+00
      vertex   -1.000000e+00 -2.100000e+01 2.500000e+00
      vertex   -1.000000e+00 -2.100000e+01 4.000000e+00
    endloop
  endfacet
  facet normal 0.000000e+00 0.000000e+00 1.000000e+00
    outer loop
      vertex   -1.000000e+00 -1.000000e+00 2.500000e+00
      vertex   -2.200000e+01 -1.000000e+00 2.500000e+00
      vertex   -1.000000e+00 -1.900000e+01 2.500000e+00
    endloop
  endfacet
  facet normal 0.000000e+00 0.000000e+00 1.000000e+00
    outer loop
      vertex   -1.000000e+00 -1.900000e+01 2.500000e+00
      vertex   -2.200000e+01 -1.000000e+00 2.500000e+00
      vertex   -2.200000e+01 -1.900000e+01 2.500000e+00
    endloop
  endfacet
  facet normal -1.000000e+00 0.000000e+00 0.000000e+00
    outer loop
      vertex   -1.000000e+00 -1.000000e+00 2.500000e+00
      vertex   -1.000000e+00 -1.900000e+01 2.500000e+00
      vertex   -1.000000e+00 -1.000000e+00 4.000000e+00
    endloop
  endfacet
  facet normal -1.000000e+00 -0.000000e+00 0.000000e+00
    outer loop
      vertex   -1.000000e+00 -1.000000e+00 4.000000e+00
      vertex   -1.000000e+00 -1.900000e+01 2.500000e+00
      vertex   -1.000000e+00 -1.900000e+01 4.000000e+00
    endloop
  endfacet
  facet normal 0.000000e+00 -1.000000e+00 0.000000e+00
    outer loop
      vertex   -2.200000e+01 -1.000000e+00 2.500000e+00
      vertex   -1.000000e+00 -1.000000e+00 2.500000e+00
      vertex   -2.200000e+01 -1.000000e+00 4.000000e+00
    endloop
  endfacet
  facet normal 0.000000e+00 -1.000000e+00 0.000000e+00
    outer loop
      vertex   -2.200000e+01 -1.000000e+00 4.000000e+00
      vertex   -1.000000e+00 -1.000000e+00 2.500000e+00
      vertex   -1.000000e+00 -1.000000e+00 4.000000e+00
    endloop
  endfacet
  facet normal 0.000000e+00 1.000000e+00 -0.000000e+00
    outer loop
      vertex   -1.000000e+00 -1.900000e+01 2.500000e+00
      vertex   -2.200000e+01 -1.900000e+01 2.500000e+00
      vertex   -1.000000e+00 -1.900000e+01 4.000000e+00
    endloop
  endfacet
  facet normal 0.000000e+00 1.000000e+00 0.000000e+00
    outer loop
      vertex   -1.000000e+00 -1.900000e+01 4.000000e+00
      vertex   -2.200000e+01 -1.900000e+01 2.500000e+00
      vertex   -2.200000e+01 -1.900000e+01 4.000000e+00
    endloop
  endfacet
  facet normal 1.000000e+00 0.000000e+00 0.000000e+00
    outer loop
      vertex   -2.200000e+01 -1.900000e+01 2.500000e+00
      vertex   -2.200000e+01 -1.000000e+00 2.500000e+00
      vertex   -2.200000e+01 -1.900000e+01 4.000000e+00
    endloop
  endfacet
  facet normal 1.000000e+00 -0.000000e+00 0.000000e+00
    outer loop
      vertex   -2.200000e+01 -1.900000e+01 4.000000e+00
      vertex   -2.200000e+01 -1.000000e+00 2.500000e+00
      vertex   -2.200000e+01 -1.000000e+00 4.000000e+00
    endloop
  endfacet
  facet normal 0.000000e+00 0.000000e+00 1.000000e+00
    outer loop
      vertex   1.000000e+00 1.000000e+00 2.500000e+00
      vertex   2.200000e+01 1.000000e+00 2.500000e+00
      vertex   1.000000e+00 1.900000e+01 2.500000e+00
    endloop
  endfacet
  facet normal -0.000000e+00 0.000000e+00 1.000000e+00
    outer loop
      vertex   1.000000e+00 1.900000e+01 2.500000e+00
      vertex   2.200000e+01 1.000000e+00 2.500000e+00
      vertex   2.200000e+01 1.900000e+01 2.500000e+00
    endloop
  endfacet
  facet normal 1.000000e+00 0.000000e+00 0.000000e+00
    outer loop
      vertex   1.000000e+00 1.000000e+00 2.500000e+00
      vertex   1.000000e+00 1.900000e+01 2.500000e+00
      vertex   1.000000e+00 1.000000e+00 4.000000e+00
    endloop
  endfacet
  facet normal 1.000000e+00 -0.000000e+00 0.000000e+00
    outer loop
      vertex   1.000000e+00 1.000000e+00 4.000000e+00
      vertex   1.000000e+00 1.900000e+01 2.500000e+00
      vertex   1.000000e+00 1.900000e+01 4.000000e+00
    endloop
  endfacet
  facet normal 0.000000e+00 1.000000e+00 -0.000000e+00
    outer loop
      vertex   2.200000e+01 1.000000e+00 2.500000e+00
      vertex   1.000000e+00 1.000000e+00 2.500000e+00
      vertex   2.200000e+01 1.000000e+00 4.000000e+00
    endloop
  endfacet
  facet normal 0.000000e+00 1.000000e+00 0.000000e+00
    outer loop
      vertex   2.200000e+01 1.000000e+00 4.000000e+00
      vertex   1.000000e+00 1.000000e+00 2.500000e+00
      vertex   1.000000e+00 1.000000e+00 4.000000e+00
    endloop
  endfacet
  facet normal 0.000000e+00 -1.000000e+00 0.000000e+00
    outer loop
      vertex   1.000000e+00 1.900000e+01 2.500000e+00
      vertex   2.200000e+01 1.900000e+01 2.500000e+00
      vertex   1.000000e+00 1.900000e+01 4.000000e+00
    endloop
  endfacet
  facet normal 0.000000e+00 -1.000000e+00 0.000000e+00
    outer loop
      vertex   1.000000e+00 1.900000e+01 4.000000e+00
      vertex   2.200000e+01 1.900000e+01 2.500000e+00
      vertex   2.200000e+01 1.900000e+01 4.000000e+00
    endloop
  endfacet
  facet normal -1.000000e+00 0.000000e+00 0.000000e+00
    outer loop
      vertex   2.200000e+01 1.900000e+01 2.500000e+00
      vertex   2.200000e+01 1.000000e+00 2.500000e+00
      vertex   2.200000e+01 1.900000e+01 4.000000e+00
    endloop
  endfacet
  facet normal -1.000000e+00 -0.000000e+00 0.000000e+00
    outer loop
      vertex   2.200000e+01 1.900000e+01 4.000000e+00
      vertex   2.200000e+01 1.000000e+00 2.500000e+00
      vertex   2.200000e+01 1.000000e+00 4.000000e+00
    endloop
  endfacet
  facet normal 0.000000e+00 0.000000e+00 1.000000e+00
    outer loop
      vertex   1.000000e+00 2.100000e+01 2.500000e+00
      vertex   3.100000e+01 2.100000e+01 2.500000e+00
      vertex   1.000000e+00 3.800000e+01 2.500000e+00
    endloop
  endfacet
  facet normal -0.000000e+00 0.000000e+00 1.000000e+00
    outer loop
      vertex   1.000000e+00 3.800000e+01 2.500000e+00
      vertex   3.100000e+01 2.100000e+01 2.500000e+00
      vertex   3.100000e+01 3.800000e+01 2.500000e+00
    endloop
  endfacet
  facet normal 1.000000e+00 0.000000e+00 0.000000e+00
    outer loop
      vertex   1.000000e+00 2.100000e+01 2.500000e+00
      vertex   1.000000e+00 3.800000e+01 2.500000e+00
      vertex   1.000000e+00 2.100000e+01 4.000000e+00
    endloop
  endfacet
  facet normal 1.000000e+00 -0.000000e+00 0.000000e+00
    outer loop
      vertex   1.000000e+00 2.100000e+01 4.000000e+00
      vertex   1.000000e+00 3.800000e+01 2.500000e+00
      vertex   1.000000e+00 3.800000e+01 4.000000e+00
    endloop
  endfacet
  facet normal 0.000000e+00 1.000000e+00 -0.000000e+00
    outer loop
      vertex   3.100000e+01 2.100000e+01 2.500000e+00
      vertex   1.000000e+00 2.100000e+01 2.500000e+00
      vertex   3.100000e+01 2.100000e+01 4.000000e+00
    endloop
  endfacet
  facet normal 0.000000e+00 1.000000e+00 0.000000e+00
    outer loop
      vertex   3.100000e+01 2.100000e+01 4.000000e+00
      vertex   1.000000e+00 2.100000e+01 2.500000e+00
      vertex   1.000000e+00 2.100000e+01 4.000000e+00
    endloop
  endfacet
  facet normal 0.000000e+00 -1.000000e+00 0.000000e+00
    outer loop
      vertex   1.000000e+00 3.800000e+01 2.500000e+00
      vertex   3.100000e+01 3.800000e+01 2.500000e+00
      vertex   1.000000e+00 3.800000e+01 4.000000e+00
    endloop
  endfacet
  facet normal 0.000000e+00 -1.000000e+00 0.000000e+00
    outer loop
      vertex   1.000000e+00 3.800000e+01 4.000000e+00
      vertex   3.100000e+01 3.800000e+01 2.500000e+00
      vertex   3.100000e+01 3.800000e+01 4.000000e+00
    endloop
  endfacet
  facet normal -1.000000e+00 0.000000e+00 0.000000e+00
    outer loop
      vertex   3.100000e+01 3.800000e+01 2.500000e+00
      vertex   3.100000e+01 2.100000e+01 2.500000e+00
      vertex   3.100000e+01 3.800000e+01 4.000000e+00
    endloop
  endfacet
  facet normal -1.000000e+00 -0.000000e+00 0.000000e+00
    outer loop
      vertex   3.100000e+01 3.800000e+01 4.000000e+00
      vertex   3.100000e+01 2.100000e+01 2.500000e+00
      vertex   3.100000e+01 2.100000e+01 4.000000e+00
    endloop
  endfacet
  facet normal 0.000000e+00 0.000000e+00 1.000000e+00
    outer loop
      vertex   -3.100000e+01 -1.100000e+01 2.500000e+00
      vertex   -2.400000e+01 -1.100000e+01 2.500000e+00
      vertex   -3.100000e+01 1.200000e+01 2.500000e+00
    endloop
  endfacet
  facet normal -0.000000e+00 0.000000e+00 1.000000e+00
    outer loop
      vertex   -3.100000e+01 1.200000e+01 2.500000e+00
      vertex   -2.400000e+01 -1.100000e+01 2.500000e+00
      vertex   -2.400000e+01 1.200000e+01 2.500000e+00
    endloop
  endfacet
  facet normal 1.000000e+00 0.000000e+00 0.000000e+00
    outer loop
      vertex   -3.100000e+01 -1.100000e+01 2.500000e+00
      vertex   -3.100000e+01 1.200000e+01 2.500000e+00
      vertex   -3.100000e+01 -1.100000e+01 4.000000e+00
    endloop
  endfacet
  facet normal 1.000000e+00 -0.000000e+00 0.000000e+00
    outer loop
      vertex   -3.100000e+01 -1.100000e+01 4.000000e+00
      vertex   -3.100000e+01 1.200000e+01 2.500000e+00
      vertex   -3.100000e+01 1.200000e+01 4.000000e+00
    endloop
  endfacet
  facet normal 0.000000e+00 1.000000e+00 -0.000000e+00
    outer loop
      vertex   -2.400000e+01 -1.100000e+01 2.500000e+00
      vertex   -3.100000e+01 -1.100000e+01 2.500000e+00
      vertex   -2.400000e+01 -1.100000e+01 4.000000e+00
    endloop
  endfacet
  facet normal 0.000000e+00 1.000000e+00 0.000000e+00
    outer loop
      vertex   -2.400000e+01 -1.100000e+01 4.000000e+00
      vertex   -3.100000e+01 -1.100000e+01 2.500000e+00
      vertex   -3.100000e+01 -1.100000e+01 4.000000e+00
    endloop
  endfacet
  facet normal 0.000000e+00 -1.000000e+00 0.000000e+00
    outer loop
      vertex   -3.100000e+01 1.200000e+01 2.500000e+00
      vertex   -2.400000e+01 1.200000e+01 2.500000e+00
      vertex   -3.100000e+01 1.200000e+01 4.000000e+00
    endloop
  endfacet
  facet normal 0.000000e+00 -1.000000e+00 0.000000e+00
    outer loop
      vertex   -3.100000e+01 1.200000e+01 4.000000e+00
      vertex   -2.400000e+01 1.200000e+01 2.500000e+00
      vertex   -2.400000e+01 1.200000e+01 4.000000e+00
    endloop
  endfacet
  facet normal -1.000000e+00 0.000000e+00 0.000000e+00
    outer loop
      vertex   -2.400000e+01 1.200000e+01 2.500000e+00
      vertex   -2.400000e+01 -1.100000e+01 2.500000e+00
      vertex   -2.400000e+01 1.200000e+01 4.000000e+00
    endloop
  endfacet
  facet normal -1.000000e+00 -0.000000e+00 0.000000e+00
    outer loop
      vertex   -2.400000e+01 1.200000e+01 4.000000e+00
      vertex   -2.400000e+01 -1.100000e+01 2.500000e+00
      vertex   -2.400000e+01 -1.100000e+01 4.000000e+00
    endloop
  endfacet
  facet normal 0.000000e+00 0.000000e+00 1.000000e+00
    outer loop
      vertex   1.000000e+00 -3.900000e+01 2.500000e+00
      vertex   3.100000e+01 -3.900000e+01 2.500000e+00
      vertex   1.000000e+00 -2.100000e+01 2.500000e+00
    endloop
  endfacet
  facet normal -0.000000e+00 0.000000e+00 1.000000e+00
    outer loop
      vertex   1.000000e+00 -2.100000e+01 2.500000e+00
      vertex   3.100000e+01 -3.900000e+01 2.500000e+00
      vertex   3.100000e+01 -2.100000e+01 2.500000e+00
    endloop
  endfacet
  facet normal 1.000000e+00 0.000000e+00 0.000000e+00
    outer loop
      vertex   1.000000e+00 -3.900000e+01 2.500000e+00
      vertex   1.000000e+00 -2.100000e+01 2.500000e+00
      vertex   1.000000e+00 -3.900000e+01 4.000000e+00
    endloop
  endfacet
  facet normal 1.000000e+00 -0.000000e+00 0.000000e+00
    outer loop
      vertex   1.000000e+00 -3.900000e+01 4.000000e+00
      vertex   1.000000e+00 -2.100000e+01 2.500000e+00
      vertex   1.000000e+00 -2.100000e+01 4.000000e+00
    endloop
  endfacet
  facet normal 0.000000e+00 1.000000e+00 -0.000000e+00
    outer loop
      vertex   3.100000e+01 -3.900000e+01 2.500000e+00
      vertex   1.000000e+00 -3.900000e+01 2.500000e+00
      vertex   3.100000e+01 -3.900000e+01 4.000000e+00
    endloop
  endfacet
  facet normal 0.000000e+00 1.000000e+00 0.000000e+00
    outer loop
      vertex   3.100000e+01 -3.900000e+01 4.000000e+00
      vertex   1.000000e+00 -3.900000e+01 2.500000e+00
      vertex   1.000000e+00 -3.900000e+01 4.000000e+00
    endloop
  endfacet
  facet normal 0.000000e+00 -1.000000e+00 0.000000e+00
    outer loop
      vertex   1.000000e+00 -2.100000e+01 2.500000e+00
      vertex   3.100000e+01 -2.100000e+01 2.500000e+00
      vertex   1.000000e+00 -2.100000e+01 4.000000e+00
    endloop
  endfacet
  facet normal 0.000000e+00 -1.000000e+00 0.000000e+00
    outer loop
      vertex   1.000000e+00 -2.100000e+01 4.000000e+00
      vertex   3.100000e+01 -2.100000e+01 2.500000e+00
      vertex   3.100000e+01 -2.100000e+01 4.000000e+00
    endloop
  endfacet
  facet normal -1.000000e+00 0.000000e+00 0.000000e+00
    outer loop
      vertex   3.100000e+01 -2.100000e+01 2.500000e+00
      vertex   3.100000e+01 -3.900000e+01 2.500000e+00
      vertex   3.100000e+01 -2.100000e+01 4.000000e+00
    endloop
  endfacet
  facet normal -1.000000e+00 -0.000000e+00 0.000000e+00
    outer loop
      vertex   3.100000e+01 -2.100000e+01 4.000000e+00
      vertex   3.100000e+01 -3.900000e+01 2.500000e+00
      vertex   3.100000e+01 -3.900000e+01 4.000000e+00
    endloop
  endfacet
  facet normal -7.071068e-01 0.000000e+00 -7.071068e-01
    outer loop
      vertex   -2.990000e+01 -3.725000e+01 0.000000e+00
      vertex   -3.390000e+01 -4.125000e+01 4.000000e+00
      vertex   -2.990000e+01 3.725000e+01 0.000000e+00
    endloop
  endfacet
  facet normal -7.071068e-01 0.000000e+00 -7.071068e-01
    outer loop
      vertex   -2.990000e+01 3.725000e+01 0.000000e+00
      vertex   -3.390000e+01 -4.125000e+01 4.000000e+00
      vertex   -3.390000e+01 4.125000e+01 4.000000e+00
    endloop
  endfacet
  facet normal -0.000000e+00 -7.071068e-01 -7.071068e-01
    outer loop
      vertex   3.390000e+01 -4.125000e+01 4.000000e+00
      vertex   -3.390000e+01 -4.125000e+01 4.000000e+00
      vertex   2.990000e+01 -3.725000e+01 0.000000e+00
    endloop
  endfacet
  facet normal -0.000000e+00 -7.071068e-01 -7.071068e-01
    outer loop
      vertex   2.990000e+01 -3.725000e+01 0.000000e+00
      vertex   -3.390000e+01 -4.125000e+01 4.000000e+00
      vertex   -2.990000e+01 -3.725000e+01 0.000000e+00
    endloop
  endfacet
  facet normal 7.071068e-01 0.000000e+00 -7.071068e-01
    outer loop
      vertex   3.390000e+01 4.125000e+01 4.000000e+00
      vertex   3.390000e+01 -4.125000e+01 4.000000e+00
      vertex   2.990000e+01 3.725000e+01 0.000000e+00
    endloop
  endfacet
  facet normal 7.071068e-01 0.000000e+00 -7.071068e-01
    outer loop
      vertex   2.990000e+01 3.725000e+01 0.000000e+00
      vertex   3.390000e+01 -4.125000e+01 4.000000e+00
      vertex   2.990000e+01 -3.725000e+01 0.000000e+00
    endloop
  endfacet
  facet normal 0.000000e+00 7.071068e-01 -7.071068e-01
    outer loop
      vertex   -3.390000e+01 4.125000e+01 4.000000e+00
      vertex   3.390000e+01 4.125000e+01 4.000000e+00
      vertex   -2.990000e+01 3.725000e+01 0.000000e+00
    endloop
  endfacet
  facet normal 0.000000e+00 7.071068e-01 -7.071068e-01
    outer loop
      vertex   -2.990000e+01 3.725000e+01 0.000000e+00
      vertex   3.390000e+01 4.125000e+01 4.000000e+00
      vertex   2.990000e+01 3.725000e+01 0.000000e+00
    endloop
  endfacet
  facet normal 0.000000e+00 0.000000e+00 -1.000000e+00
    outer loop
      vertex   -2.990000e+01 3.725000e+01 0.000000e+00
      vertex   2.990000e+01 3.725000e+01 0.000000e+00
      vertex   -2.990000e+01 -3.725000e+01 0.000000e+00
    endloop
  endfacet
  facet normal 0.000000e+00 0.000000e+00 -1.000000e+00
    outer loop
      vertex   -2.990000e+01 -3.725000e+01 0.000000e+00
      vertex   2.990000e+01 3.725000e+01 0.000000e+00
      vertex   2.990000e+01 -3.725000e+01 0.000000e+00
    endloop
  endfacet
  facet normal 0.000000e+00 0.000000e+00 1.000000e+00
    outer loop
      vertex   2.916179e+01 -1.790374e+01 1.750000e+00
      vertex   2.913807e+01 -1.455519e+01 1.750000e+00
      vertex   2.627372e+01 -1.959855e+01 1.750000e+00
    endloop
  endfacet
  facet normal 0.000000e+00 -0.000000e+00 1.000000e+00
    outer loop
      vertex   2.627372e+01 -1.959855e+01 1.750000e+00
      vertex   2.913807e+01 -1.455519e+01 1.750000e+00
      vertex   2.622628e+01 -1.290145e+01 1.750000e+00
    endloop
  endfacet
  facet normal 0.000000e+00 0.000000e+00 1.000000e+00
    outer loop
      vertex   2.627372e+01 -1.959855e+01 1.750000e+00
      vertex   2.622628e+01 -1.290145e+01 1.750000e+00
      vertex   2.336193e+01 -1.794481e+01 1.750000e+00
    endloop
  endfacet
  facet normal 0.000000e+00 -0.000000e+00 1.000000e+00
    outer loop
      vertex   2.336193e+01 -1.794481e+01 1.750000e+00
      vertex   2.622628e+01 -1.290145e+01 1.750000e+00
      vertex   2.333821e+01 -1.459626e+01 1.750000e+00
    endloop
  endfacet
  facet normal 9.999749e-01 7.082333e-03 -0.000000e+00
    outer loop
      vertex   2.336193e+01 -1.794481e+01 1.750000e+00
      vertex   2.333821e+01 -1.459626e+01 1.750000e+00
      vertex   2.336193e+01 -1.794481e+01 4.000000e+00
    endloop
  endfacet
  facet normal 9.999749e-01 7.082333e-03 0.000000e+00
    outer loop
      vertex   2.336193e+01 -1.794481e+01 4.000000e+00
      vertex   2.333821e+01 -1.459626e+01 1.750000e+00
      vertex   2.333821e+01 -1.459626e+01 4.000000e+00
    endloop
  endfacet
  facet normal 5.061209e-01 -8.624625e-01 0.000000e+00
    outer loop
      vertex   2.333821e+01 -1.459626e+01 1.750000e+00
      vertex   2.622628e+01 -1.290145e+01 1.750000e+00
      vertex   2.333821e+01 -1.459626e+01 4.000000e+00
    endloop
  endfacet
  facet normal 5.061209e-01 -8.624625e-01 0.000000e+00
    outer loop
      vertex   2.333821e+01 -1.459626e+01 4.000000e+00
      vertex   2.622628e+01 -1.290145e+01 1.750000e+00
      vertex   2.622628e+01 -1.290145e+01 4.000000e+00
    endloop
  endfacet
  facet normal -4.938540e-01 -8.695449e-01 0.000000e+00
    outer loop
      vertex   2.622628e+01 -1.290145e+01 1.750000e+00
      vertex   2.913807e+01 -1.455519e+01 1.750000e+00
      vertex   2.622628e+01 -1.290145e+01 4.000000e+00
    endloop
  endfacet
  facet normal -4.938540e-01 -8.695449e-01 -7.072966e-16
    outer loop
      vertex   2.622628e+01 -1.290145e+01 4.000000e+00
      vertex   2.913807e+01 -1.455519e+01 1.750000e+00
      vertex   2.913807e+01 -1.455519e+01 4.000000e+00
    endloop
  endfacet
  facet normal 0.000000e+00 0.000000e+00 1.000000e+00
    outer loop
      vertex   -2.334041e+01 1.459241e+01 1.750000e+00
      vertex   -2.335969e+01 1.794099e+01 1.750000e+00
      vertex   -2.623072e+01 1.290142e+01 1.750000e+00
    endloop
  endfacet
  facet normal 0.000000e+00 -0.000000e+00 1.000000e+00
    outer loop
      vertex   -2.623072e+01 1.290142e+01 1.750000e+00
      vertex   -2.335969e+01 1.794099e+01 1.750000e+00
      vertex   -2.626928e+01 1.959858e+01 1.750000e+00
    endloop
  endfacet
  facet normal 0.000000e+00 0.000000e+00 1.000000e+00
    outer loop
      vertex   -2.623072e+01 1.290142e+01 1.750000e+00
      vertex   -2.626928e+01 1.959858e+01 1.750000e+00
      vertex   -2.914031e+01 1.455901e+01 1.750000e+00
    endloop
  endfacet
  facet normal 0.000000e+00 -0.000000e+00 1.000000e+00
    outer loop
      vertex   -2.914031e+01 1.455901e+01 1.750000e+00
      vertex   -2.626928e+01 1.959858e+01 1.750000e+00
      vertex   -2.915959e+01 1.790759e+01 1.750000e+00
    endloop
  endfacet
  facet normal 9.999834e-01 5.758198e-03 -0.000000e+00
    outer loop
      vertex   -2.914031e+01 1.455901e+01 1.750000e+00
      vertex   -2.915959e+01 1.790759e+01 1.750000e+00
      vertex   -2.914031e+01 1.455901e+01 4.000000e+00
    endloop
  endfacet
  facet normal 9.999834e-01 5.758198e-03 0.000000e+00
    outer loop
      vertex   -2.914031e+01 1.455901e+01 4.000000e+00
      vertex   -2.915959e+01 1.790759e+01 1.750000e+00
      vertex   -2.915959e+01 1.790759e+01 4.000000e+00
    endloop
  endfacet
  facet normal 5.049785e-01 -8.631319e-01 0.000000e+00
    outer loop
      vertex   -2.915959e+01 1.790759e+01 1.750000e+00
      vertex   -2.626928e+01 1.959858e+01 1.750000e+00
      vertex   -2.915959e+01 1.790759e+01 4.000000e+00
    endloop
  endfacet
  facet normal 5.049785e-01 -8.631319e-01 0.000000e+00
    outer loop
      vertex   -2.915959e+01 1.790759e+01 4.000000e+00
      vertex   -2.626928e+01 1.959858e+01 1.750000e+00
      vertex   -2.626928e+01 1.959858e+01 4.000000e+00
    endloop
  endfacet
  facet normal -4.950050e-01 -8.688901e-01 0.000000e+00
    outer loop
      vertex   -2.626928e+01 1.959858e+01 1.750000e+00
      vertex   -2.335969e+01 1.794099e+01 1.750000e+00
      vertex   -2.626928e+01 1.959858e+01 4.000000e+00
    endloop
  endfacet
  facet normal -4.950050e-01 -8.688901e-01 0.000000e+00
    outer loop
      vertex   -2.626928e+01 1.959858e+01 4.000000e+00
      vertex   -2.335969e+01 1.794099e+01 1.750000e+00
      vertex   -2.335969e+01 1.794099e+01 4.000000e+00
    endloop
  endfacet
  facet normal 0.000000e+00 0.000000e+00 1.000000e+00
    outer loop
      vertex   -2.335000e+01 -1.457568e+01 1.750000e+00
      vertex   -2.625000e+01 -1.290137e+01 1.750000e+00
      vertex   -2.335000e+01 -1.792432e+01 1.750000e+00
    endloop
  endfacet
  facet normal 0.000000e+00 0.000000e+00 1.000000e+00
    outer loop
      vertex   -2.335000e+01 -1.792432e+01 1.750000e+00
      vertex   -2.625000e+01 -1.290137e+01 1.750000e+00
      vertex   -2.625000e+01 -1.959863e+01 1.750000e+00
    endloop
  endfacet
  facet normal 0.000000e+00 -0.000000e+00 1.000000e+00
    outer loop
      vertex   -2.625000e+01 -1.959863e+01 1.750000e+00
      vertex   -2.625000e+01 -1.290137e+01 1.750000e+00
      vertex   -2.915000e+01 -1.457568e+01 1.750000e+00
    endloop
  endfacet
  facet normal 0.000000e+00 0.000000e+00 1.000000e+00
    outer loop
      vertex   -2.625000e+01 -1.959863e+01 1.750000e+00
      vertex   -2.915000e+01 -1.457568e+01 1.750000e+00
      vertex   -2.915000e+01 -1.792432e+01 1.750000e+00
    endloop
  endfacet
  facet normal 1.000000e+00 0.000000e+00 0.000000e+00
    outer loop
      vertex   -2.915000e+01 -1.792432e+01 1.750000e+00
      vertex   -2.915000e+01 -1.457568e+01 1.750000e+00
      vertex   -2.915000e+01 -1.792432e+01 4.000000e+00
    endloop
  endfacet
  facet normal 1.000000e+00 -0.000000e+00 0.000000e+00
    outer loop
      vertex   -2.915000e+01 -1.792432e+01 4.000000e+00
      vertex   -2.915000e+01 -1.457568e+01 1.750000e+00
      vertex   -2.915000e+01 -1.457568e+01 4.000000e+00
    endloop
  endfacet
  facet normal 5.000000e-01 -8.660254e-01 0.000000e+00
    outer loop
      vertex   -2.915000e+01 -1.457568e+01 1.750000e+00
      vertex   -2.625000e+01 -1.290137e+01 1.750000e+00
      vertex   -2.915000e+01 -1.457568e+01 4.000000e+00
    endloop
  endfacet
  facet normal 5.000000e-01 -8.660254e-01 -1.296710e-15
    outer loop
      vertex   -2.915000e+01 -1.457568e+01 4.000000e+00
      vertex   -2.625000e+01 -1.290137e+01 1.750000e+00
      vertex   -2.625000e+01 -1.290137e+01 4.000000e+00
    endloop
  endfacet
  facet normal -5.000000e-01 -8.660254e-01 -1.367440e-15
    outer loop
      vertex   -2.625000e+01 -1.290137e+01 1.750000e+00
      vertex   -2.335000e+01 -1.457568e+01 1.750000e+00
      vertex   -2.625000e+01 -1.290137e+01 4.000000e+00
    endloop
  endfacet
  facet normal -5.000000e-01 -8.660254e-01 -7.072966e-16
    outer loop
      vertex   -2.625000e+01 -1.290137e+01 4.000000e+00
      vertex   -2.335000e+01 -1.457568e+01 1.750000e+00
      vertex   -2.335000e+01 -1.457568e+01 4.000000e+00
    endloop
  endfacet
  facet normal 0.000000e+00 0.000000e+00 1.000000e+00
    outer loop
      vertex   2.915000e+01 1.792432e+01 1.750000e+00
      vertex   2.625000e+01 1.959863e+01 1.750000e+00
      vertex   2.915000e+01 1.457568e+01 1.750000e+00
    endloop
  endfacet
  facet normal 0.000000e+00 0.000000e+00 1.000000e+00
    outer loop
      vertex   2.915000e+01 1.457568e+01 1.750000e+00
      vertex   2.625000e+01 1.959863e+01 1.750000e+00
      vertex   2.625000e+01 1.290137e+01 1.750000e+00
    endloop
  endfacet
  facet normal 0.000000e+00 0.000000e+00 1.000000e+00
    outer loop
      vertex   2.625000e+01 1.290137e+01 1.750000e+00
      vertex   2.625000e+01 1.959863e+01 1.750000e+00
      vertex   2.335000e+01 1.792432e+01 1.750000e+00
    endloop
  endfacet
  facet normal 0.000000e+00 0.000000e+00 1.000000e+00
    outer loop
      vertex   2.625000e+01 1.290137e+01 1.750000e+00
      vertex   2.335000e+01 1.792432e+01 1.750000e+00
      vertex   2.335000e+01 1.457568e+01 1.750000e+00
    endloop
  endfacet
  facet normal 1.000000e+00 2.121890e-15 -0.000000e+00
    outer loop
      vertex   2.335000e+01 1.457568e+01 1.750000e+00
      vertex   2.335000e+01 1.792432e+01 1.750000e+00
      vertex   2.335000e+01 1.457568e+01 4.000000e+00
    endloop
  endfacet
  facet normal 1.000000e+00 2.121890e-15 0.000000e+00
    outer loop
      vertex   2.335000e+01 1.457568e+01 4.000000e+00
      vertex   2.335000e+01 1.792432e+01 1.750000e+00
      vertex   2.335000e+01 1.792432e+01 4.000000e+00
    endloop
  endfacet
  facet normal 5.000000e-01 -8.660254e-01 0.000000e+00
    outer loop
      vertex   2.335000e+01 1.792432e+01 1.750000e+00
      vertex   2.625000e+01 1.959863e+01 1.750000e+00
      vertex   2.335000e+01 1.792432e+01 4.000000e+00
    endloop
  endfacet
  facet normal 5.000000e-01 -8.660254e-01 0.000000e+00
    outer loop
      vertex   2.335000e+01 1.792432e+01 4.000000e+00
      vertex   2.625000e+01 1.959863e+01 1.750000e+00
      vertex   2.625000e+01 1.959863e+01 4.000000e+00
    endloop
  endfacet
  facet normal -5.000000e-01 -8.660254e-01 0.000000e+00
    outer loop
      vertex   2.625000e+01 1.959863e+01 1.750000e+00
      vertex   2.915000e+01 1.792432e+01 1.750000e+00
      vertex   2.625000e+01 1.959863e+01 4.000000e+00
    endloop
  endfacet
  facet normal -5.000000e-01 -8.660254e-01 0.000000e+00
    outer loop
      vertex   2.625000e+01 1.959863e+01 4.000000e+00
      vertex   2.915000e+01 1.792432e+01 1.750000e+00
      vertex   2.915000e+01 1.792432e+01 4.000000e+00
    endloop
  endfacet
  facet normal 4.950050e-01 8.688901e-01 -0.000000e+00
    outer loop
      vertex   -2.623072e+01 1.290142e+01 1.750000e+00
      vertex   -2.914031e+01 1.455901e+01 1.750000e+00
      vertex   -2.623072e+01 1.290142e+01 4.000000e+00
    endloop
  endfacet
  facet normal 4.950050e-01 8.688901e-01 0.000000e+00
    outer loop
      vertex   -2.623072e+01 1.290142e+01 4.000000e+00
      vertex   -2.914031e+01 1.455901e+01 1.750000e+00
      vertex   -2.914031e+01 1.455901e+01 4.000000e+00
    endloop
  endfacet
  facet normal -5.049785e-01 8.631319e-01 -7.973528e-16
    outer loop
      vertex   -2.334041e+01 1.459241e+01 1.750000e+00
      vertex   -2.623072e+01 1.290142e+01 1.750000e+00
      vertex   -2.334041e+01 1.459241e+01 4.000000e+00
    endloop
  endfacet
  facet normal -5.049785e-01 8.631319e-01 0.000000e+00
    outer loop
      vertex   -2.334041e+01 1.459241e+01 4.000000e+00
      vertex   -2.623072e+01 1.290142e+01 1.750000e+00
      vertex   -2.623072e+01 1.290142e+01 4.000000e+00
    endloop
  endfacet
  facet normal -9.999834e-01 -5.758198e-03 0.000000e+00
    outer loop
      vertex   -2.335969e+01 1.794099e+01 1.750000e+00
      vertex   -2.334041e+01 1.459241e+01 1.750000e+00
      vertex   -2.335969e+01 1.794099e+01 4.000000e+00
    endloop
  endfacet
  facet normal -9.999834e-01 -5.758198e-03 -1.578524e-15
    outer loop
      vertex   -2.335969e+01 1.794099e+01 4.000000e+00
      vertex   -2.334041e+01 1.459241e+01 1.750000e+00
      vertex   -2.334041e+01 1.459241e+01 4.000000e+00
    endloop
  endfacet
  facet normal 5.000000e-01 8.660254e-01 -0.000000e+00
    outer loop
      vertex   -2.625000e+01 -1.959863e+01 1.750000e+00
      vertex   -2.915000e+01 -1.792432e+01 1.750000e+00
      vertex   -2.625000e+01 -1.959863e+01 4.000000e+00
    endloop
  endfacet
  facet normal 5.000000e-01 8.660254e-01 0.000000e+00
    outer loop
      vertex   -2.625000e+01 -1.959863e+01 4.000000e+00
      vertex   -2.915000e+01 -1.792432e+01 1.750000e+00
      vertex   -2.915000e+01 -1.792432e+01 4.000000e+00
    endloop
  endfacet
  facet normal -5.000000e-01 8.660254e-01 0.000000e+00
    outer loop
      vertex   -2.335000e+01 -1.792432e+01 1.750000e+00
      vertex   -2.625000e+01 -1.959863e+01 1.750000e+00
      vertex   -2.335000e+01 -1.792432e+01 4.000000e+00
    endloop
  endfacet
  facet normal -5.000000e-01 8.660254e-01 0.000000e+00
    outer loop
      vertex   -2.335000e+01 -1.792432e+01 4.000000e+00
      vertex   -2.625000e+01 -1.959863e+01 1.750000e+00
      vertex   -2.625000e+01 -1.959863e+01 4.000000e+00
    endloop
  endfacet
  facet normal -1.000000e+00 0.000000e+00 0.000000e+00
    outer loop
      vertex   -2.335000e+01 -1.457568e+01 1.750000e+00
      vertex   -2.335000e+01 -1.792432e+01 1.750000e+00
      vertex   -2.335000e+01 -1.457568e+01 4.000000e+00
    endloop
  endfacet
  facet normal -1.000000e+00 -0.000000e+00 0.000000e+00
    outer loop
      vertex   -2.335000e+01 -1.457568e+01 4.000000e+00
      vertex   -2.335000e+01 -1.792432e+01 1.750000e+00
      vertex   -2.335000e+01 -1.792432e+01 4.000000e+00
    endloop
  endfacet
  facet normal 4.938540e-01 8.695449e-01 -0.000000e+00
    outer loop
      vertex   2.627372e+01 -1.959855e+01 1.750000e+00
      vertex   2.336193e+01 -1.794481e+01 1.750000e+00
      vertex   2.627372e+01 -1.959855e+01 4.000000e+00
    endloop
  endfacet
  facet normal 4.938540e-01 8.695449e-01 0.000000e+00
    outer loop
      vertex   2.627372e+01 -1.959855e+01 4.000000e+00
      vertex   2.336193e+01 -1.794481e+01 1.750000e+00
      vertex   2.336193e+01 -1.794481e+01 4.000000e+00
    endloop
  endfacet
  facet normal -5.061209e-01 8.624625e-01 0.000000e+00
    outer loop
      vertex   2.916179e+01 -1.790374e+01 1.750000e+00
      vertex   2.627372e+01 -1.959855e+01 1.750000e+00
      vertex   2.916179e+01 -1.790374e+01 4.000000e+00
    endloop
  endfacet
  facet normal -5.061209e-01 8.624625e-01 0.000000e+00
    outer loop
      vertex   2.916179e+01 -1.790374e+01 4.000000e+00
      vertex   2.627372e+01 -1.959855e+01 1.750000e+00
      vertex   2.627372e+01 -1.959855e+01 4.000000e+00
    endloop
  endfacet
  facet normal -9.999749e-01 -7.082333e-03 -5.591445e-18
    outer loop
      vertex   2.913807e+01 -1.455519e+01 1.750000e+00
      vertex   2.916179e+01 -1.790374e+01 1.750000e+00
      vertex   2.913807e+01 -1.455519e+01 4.000000e+00
    endloop
  endfacet
  facet normal -9.999749e-01 -7.082333e-03 0.000000e+00
    outer loop
      vertex   2.913807e+01 -1.455519e+01 4.000000e+00
      vertex   2.916179e+01 -1.790374e+01 1.750000e+00
      vertex   2.916179e+01 -1.790374e+01 4.000000e+00
    endloop
  endfacet
  facet normal 5.000000e-01 8.660254e-01 -0.000000e+00
    outer loop
      vertex   2.625000e+01 1.290137e+01 1.750000e+00
      vertex   2.335000e+01 1.457568e+01 1.750000e+00
      vertex   2.625000e+01 1.290137e+01 4.000000e+00
    endloop
  endfacet
  facet normal 5.000000e-01 8.660254e-01 0.000000e+00
    outer loop
      vertex   2.625000e+01 1.290137e+01 4.000000e+00
      vertex   2.335000e+01 1.457568e+01 1.750000e+00
      vertex   2.335000e+01 1.457568e+01 4.000000e+00
    endloop
  endfacet
  facet normal -5.000000e-01 8.660254e-01 0.000000e+00
    outer loop
      vertex   2.915000e+01 1.457568e+01 1.750000e+00
      vertex   2.625000e+01 1.290137e+01 1.750000e+00
      vertex   2.915000e+01 1.457568e+01 4.000000e+00
    endloop
  endfacet
  facet normal -5.000000e-01 8.660254e-01 0.000000e+00
    outer loop
      vertex   2.915000e+01 1.457568e+01 4.000000e+00
      vertex   2.625000e+01 1.290137e+01 1.750000e+00
      vertex   2.625000e+01 1.290137e+01 4.000000e+00
    endloop
  endfacet
  facet normal -1.000000e+00 0.000000e+00 0.000000e+00
    outer loop
      vertex   2.915000e+01 1.792432e+01 1.750000e+00
      vertex   2.915000e+01 1.457568e+01 1.750000e+00
      vertex   2.915000e+01 1.792432e+01 4.000000e+00
    endloop
  endfacet
  facet normal -1.000000e+00 -0.000000e+00 0.000000e+00
    outer loop
      vertex   2.915000e+01 1.792432e+01 4.000000e+00
      vertex   2.915000e+01 1.457568e+01 1.750000e+00
      vertex   2.915000e+01 1.457568e+01 4.000000e+00
    endloop
  endfacet
  facet normal 0.000000e+00 0.000000e+00 1.000000e+00
    outer loop
      vertex   2.200000e+01 -1.000000e+00 4.000000e+00
      vertex   1.000000e+00 1.000000e+00 4.000000e+00
      vertex   1.000000e+00 -1.000000e+00 4.000000e+00
    endloop
  endfacet
  facet normal 0.000000e+00 -0.000000e+00 1.000000e+00
    outer loop
      vertex   1.000000e+00 -1.000000e+00 4.000000e+00
      vertex   1.000000e+00 1.000000e+00 4.000000e+00
      vertex   -1.000000e+00 1.000000e+00 4.000000e+00
    endloop
  endfacet
  facet normal 0.000000e+00 0.000000e+00 1.000000e+00
    outer loop
      vertex   1.000000e+00 -1.000000e+00 4.000000e+00
      vertex   -1.000000e+00 1.000000e+00 4.000000e+00
      vertex   -1.000000e+00 -1.000000e+00 4.000000e+00
    endloop
  endfacet
  facet normal 0.000000e+00 -0.000000e+00 1.000000e+00
    outer loop
      vertex   -1.000000e+00 -1.000000e+00 4.000000e+00
      vertex   -1.000000e+00 1.000000e+00 4.000000e+00
      vertex   -2.200000e+01 1.000000e+00 4.000000e+00
    endloop
  endfacet
  facet normal 0.000000e+00 0.000000e+00 1.000000e+00
    outer loop
      vertex   -1.000000e+00 -1.000000e+00 4.000000e+00
      vertex   -2.200000e+01 1.000000e+00 4.000000e+00
      vertex   -2.200000e+01 -1.000000e+00 4.000000e+00
    endloop
  endfacet
  facet normal 0.000000e+00 -0.000000e+00 1.000000e+00
    outer loop
      vertex   -2.200000e+01 -1.000000e+00 4.000000e+00
      vertex   -2.200000e+01 1.000000e+00 4.000000e+00
      vertex   -2.400000e+01 -1.100000e+01 4.000000e+00
    endloop
  endfacet
  facet normal 0.000000e+00 0.000000e+00 1.000000e+00
    outer loop
      vertex   -2.200000e+01 -1.000000e+00 4.000000e+00
      vertex   -2.400000e+01 -1.100000e+01 4.000000e+00
      vertex   -2.335000e+01 -1.457568e+01 4.000000e+00
    endloop
  endfacet
  facet normal 0.000000e+00 0.000000e+00 1.000000e+00
    outer loop
      vertex   -2.335000e+01 -1.457568e+01 4.000000e+00
      vertex   -2.400000e+01 -1.100000e+01 4.000000e+00
      vertex   -2.625000e+01 -1.290137e+01 4.000000e+00
    endloop
  endfacet
  facet normal 0.000000e+00 -0.000000e+00 1.000000e+00
    outer loop
      vertex   -2.625000e+01 -1.290137e+01 4.000000e+00
      vertex   -2.400000e+01 -1.100000e+01 4.000000e+00
      vertex   -3.100000e+01 -1.100000e+01 4.000000e+00
    endloop
  endfacet
  facet normal 0.000000e+00 0.000000e+00 1.000000e+00
    outer loop
      vertex   -2.625000e+01 -1.290137e+01 4.000000e+00
      vertex   -3.100000e+01 -1.100000e+01 4.000000e+00
      vertex   -2.915000e+01 -1.457568e+01 4.000000e+00
    endloop
  endfacet
  facet normal 0.000000e+00 0.000000e+00 1.000000e+00
    outer loop
      vertex   -2.915000e+01 -1.457568e+01 4.000000e+00
      vertex   -3.100000e+01 -1.100000e+01 4.000000e+00
      vertex   -3.100000e+01 -2.100000e+01 4.000000e+00
    endloop
  endfacet
  facet normal 0.000000e+00 0.000000e+00 1.000000e+00
    outer loop
      vertex   -2.915000e+01 -1.457568e+01 4.000000e+00
      vertex   -3.100000e+01 -2.100000e+01 4.000000e+00
      vertex   -2.915000e+01 -1.792432e+01 4.000000e+00
    endloop
  endfacet
  facet normal 0.000000e+00 0.000000e+00 1.000000e+00
    outer loop
      vertex   -2.915000e+01 -1.792432e+01 4.000000e+00
      vertex   -3.100000e+01 -2.100000e+01 4.000000e+00
      vertex   -2.625000e+01 -1.959863e+01 4.000000e+00
    endloop
  endfacet
  facet normal -0.000000e+00 0.000000e+00 1.000000e+00
    outer loop
      vertex   -2.625000e+01 -1.959863e+01 4.000000e+00
      vertex   -3.100000e+01 -2.100000e+01 4.000000e+00
      vertex   -2.200000e+01 -1.900000e+01 4.000000e+00
    endloop
  endfacet
  facet normal 0.000000e+00 0.000000e+00 1.000000e+00
    outer loop
      vertex   -2.625000e+01 -1.959863e+01 4.000000e+00
      vertex   -2.200000e+01 -1.900000e+01 4.000000e+00
      vertex   -2.335000e+01 -1.792432e+01 4.000000e+00
    endloop
  endfacet
  facet normal -0.000000e+00 0.000000e+00 1.000000e+00
    outer loop
      vertex   -2.335000e+01 -1.792432e+01 4.000000e+00
      vertex   -2.200000e+01 -1.900000e+01 4.000000e+00
      vertex   -2.335000e+01 -1.457568e+01 4.000000e+00
    endloop
  endfacet
  facet normal -0.000000e+00 0.000000e+00 1.000000e+00
    outer loop
      vertex   -2.335000e+01 -1.457568e+01 4.000000e+00
      vertex   -2.200000e+01 -1.900000e+01 4.000000e+00
      vertex   -2.200000e+01 -1.000000e+00 4.000000e+00
    endloop
  endfacet
  facet normal 0.000000e+00 0.000000e+00 1.000000e+00
    outer loop
      vertex   2.200000e+01 -1.900000e+01 4.000000e+00
      vertex   2.333821e+01 -1.459626e+01 4.000000e+00
      vertex   2.200000e+01 -1.000000e+00 4.000000e+00
    endloop
  endfacet
  facet normal 0.000000e+00 0.000000e+00 1.000000e+00
    outer loop
      vertex   2.200000e+01 -1.000000e+00 4.000000e+00
      vertex   2.333821e+01 -1.459626e+01 4.000000e+00
      vertex   2.400000e+01 -1.200000e+01 4.000000e+00
    endloop
  endfacet
  facet normal -0.000000e+00 0.000000e+00 1.000000e+00
    outer loop
      vertex   2.200000e+01 -1.000000e+00 4.000000e+00
      vertex   2.400000e+01 -1.200000e+01 4.000000e+00
      vertex   2.200000e+01 1.000000e+00 4.000000e+00
    endloop
  endfacet
  facet normal -0.000000e+00 0.000000e+00 1.000000e+00
    outer loop
      vertex   2.200000e+01 1.000000e+00 4.000000e+00
      vertex   2.400000e+01 -1.200000e+01 4.000000e+00
      vertex   2.400000e+01 1.200000e+01 4.000000e+00
    endloop
  endfacet
  facet normal 0.000000e+00 0.000000e+00 1.000000e+00
    outer loop
      vertex   2.200000e+01 1.000000e+00 4.000000e+00
      vertex   2.400000e+01 1.200000e+01 4.000000e+00
      vertex   2.335000e+01 1.457568e+01 4.000000e+00
    endloop
  endfacet
  facet normal 0.000000e+00 0.000000e+00 1.000000e+00
    outer loop
      vertex   2.335000e+01 1.457568e+01 4.000000e+00
      vertex   2.400000e+01 1.200000e+01 4.000000e+00
      vertex   2.625000e+01 1.290137e+01 4.000000e+00
    endloop
  endfacet
  facet normal 0.000000e+00 0.000000e+00 1.000000e+00
    outer loop
      vertex   2.625000e+01 1.290137e+01 4.000000e+00
      vertex   2.400000e+01 1.200000e+01 4.000000e+00
      vertex   3.100000e+01 1.200000e+01 4.000000e+00
    endloop
  endfacet
  facet normal -0.000000e+00 0.000000e+00 1.000000e+00
    outer loop
      vertex   2.625000e+01 1.290137e+01 4.000000e+00
      vertex   3.100000e+01 1.200000e+01 4.000000e+00
      vertex   2.915000e+01 1.457568e+01 4.000000e+00
    endloop
  endfacet
  facet normal -0.000000e+00 0.000000e+00 1.000000e+00
    outer loop
      vertex   2.915000e+01 1.457568e+01 4.000000e+00
      vertex   3.100000e+01 1.200000e+01 4.000000e+00
      vertex   2.915000e+01 1.792432e+01 4.000000e+00
    endloop
  endfacet
  facet normal -0.000000e+00 0.000000e+00 1.000000e+00
    outer loop
      vertex   2.915000e+01 1.792432e+01 4.000000e+00
      vertex   3.100000e+01 1.200000e+01 4.000000e+00
      vertex   3.100000e+01 2.100000e+01 4.000000e+00
    endloop
  endfacet
  facet normal 0.000000e+00 -0.000000e+00 1.000000e+00
    outer loop
      vertex   2.915000e+01 1.792432e+01 4.000000e+00
      vertex   3.100000e+01 2.100000e+01 4.000000e+00
      vertex   2.625000e+01 1.959863e+01 4.000000e+00
    endloop
  endfacet
  facet normal 0.000000e+00 -0.000000e+00 1.000000e+00
    outer loop
      vertex   2.625000e+01 1.959863e+01 4.000000e+00
      vertex   3.100000e+01 2.100000e+01 4.000000e+00
      vertex   2.200000e+01 1.900000e+01 4.000000e+00
    endloop
  endfacet
  facet normal 0.000000e+00 0.000000e+00 1.000000e+00
    outer loop
      vertex   2.625000e+01 1.959863e+01 4.000000e+00
      vertex   2.200000e+01 1.900000e+01 4.000000e+00
      vertex   2.335000e+01 1.792432e+01 4.000000e+00
    endloop
  endfacet
  facet normal 0.000000e+00 0.000000e+00 1.000000e+00
    outer loop
      vertex   2.335000e+01 1.792432e+01 4.000000e+00
      vertex   2.200000e+01 1.900000e+01 4.000000e+00
      vertex   2.335000e+01 1.457568e+01 4.000000e+00
    endloop
  endfacet
  facet normal 0.000000e+00 0.000000e+00 1.000000e+00
    outer loop
      vertex   2.335000e+01 1.457568e+01 4.000000e+00
      vertex   2.200000e+01 1.900000e+01 4.000000e+00
      vertex   2.200000e+01 1.000000e+00 4.000000e+00
    endloop
  endfacet
  facet normal -0.000000e+00 0.000000e+00 1.000000e+00
    outer loop
      vertex   1.000000e+00 -1.900000e+01 4.000000e+00
      vertex   1.000000e+00 -2.100000e+01 4.000000e+00
      vertex   2.200000e+01 -1.900000e+01 4.000000e+00
    endloop
  endfacet
  facet normal 0.000000e+00 0.000000e+00 1.000000e+00
    outer loop
      vertex   2.200000e+01 -1.900000e+01 4.000000e+00
      vertex   1.000000e+00 -2.100000e+01 4.000000e+00
      vertex   3.100000e+01 -2.100000e+01 4.000000e+00
    endloop
  endfacet
  facet normal 0.000000e+00 0.000000e+00 1.000000e+00
    outer loop
      vertex   2.200000e+01 -1.900000e+01 4.000000e+00
      vertex   3.100000e+01 -2.100000e+01 4.000000e+00
      vertex   2.627372e+01 -1.959855e+01 4.000000e+00
    endloop
  endfacet
  facet normal -0.000000e+00 0.000000e+00 1.000000e+00
    outer loop
      vertex   2.627372e+01 -1.959855e+01 4.000000e+00
      vertex   3.100000e+01 -2.100000e+01 4.000000e+00
      vertex   2.916179e+01 -1.790374e+01 4.000000e+00
    endloop
  endfacet
  facet normal -0.000000e+00 0.000000e+00 1.000000e+00
    outer loop
      vertex   2.916179e+01 -1.790374e+01 4.000000e+00
      vertex   3.100000e+01 -2.100000e+01 4.000000e+00
      vertex   3.100000e+01 -1.200000e+01 4.000000e+00
    endloop
  endfacet
  facet normal 0.000000e+00 -0.000000e+00 1.000000e+00
    outer loop
      vertex   2.916179e+01 -1.790374e+01 4.000000e+00
      vertex   3.100000e+01 -1.200000e+01 4.000000e+00
      vertex   2.913807e+01 -1.455519e+01 4.000000e+00
    endloop
  endfacet
  facet normal 0.000000e+00 -0.000000e+00 1.000000e+00
    outer loop
      vertex   2.913807e+01 -1.455519e+01 4.000000e+00
      vertex   3.100000e+01 -1.200000e+01 4.000000e+00
      vertex   2.622628e+01 -1.290145e+01 4.000000e+00
    endloop
  endfacet
  facet normal 0.000000e+00 -0.000000e+00 1.000000e+00
    outer loop
      vertex   2.622628e+01 -1.290145e+01 4.000000e+00
      vertex   3.100000e+01 -1.200000e+01 4.000000e+00
      vertex   2.400000e+01 -1.200000e+01 4.000000e+00
    endloop
  endfacet
  facet normal 0.000000e+00 0.000000e+00 1.000000e+00
    outer loop
      vertex   2.622628e+01 -1.290145e+01 4.000000e+00
      vertex   2.400000e+01 -1.200000e+01 4.000000e+00
      vertex   2.333821e+01 -1.459626e+01 4.000000e+00
    endloop
  endfacet
  facet normal 0.000000e+00 0.000000e+00 1.000000e+00
    outer loop
      vertex   1.000000e+00 -1.000000e+00 4.000000e+00
      vertex   -1.000000e+00 -1.000000e+00 4.000000e+00
      vertex   1.000000e+00 -1.900000e+01 4.000000e+00
    endloop
  endfacet
  facet normal 0.000000e+00 0.000000e+00 1.000000e+00
    outer loop
      vertex   1.000000e+00 -1.900000e+01 4.000000e+00
      vertex   -1.000000e+00 -1.000000e+00 4.000000e+00
      vertex   -1.000000e+00 -1.900000e+01 4.000000e+00
    endloop
  endfacet
  facet normal 0.000000e+00 0.000000e+00 1.000000e+00
    outer loop
      vertex   1.000000e+00 -1.900000e+01 4.000000e+00
      vertex   -1.000000e+00 -1.900000e+01 4.000000e+00
      vertex   1.000000e+00 -2.100000e+01 4.000000e+00
    endloop
  endfacet
  facet normal 0.000000e+00 0.000000e+00 1.000000e+00
    outer loop
      vertex   1.000000e+00 -2.100000e+01 4.000000e+00
      vertex   -1.000000e+00 -1.900000e+01 4.000000e+00
      vertex   -1.000000e+00 -2.100000e+01 4.000000e+00
    endloop
  endfacet
  facet normal 0.000000e+00 0.000000e+00 1.000000e+00
    outer loop
      vertex   1.000000e+00 -2.100000e+01 4.000000e+00
      vertex   -1.000000e+00 -2.100000e+01 4.000000e+00
      vertex   1.000000e+00 -3.900000e+01 4.000000e+00
    endloop
  endfacet
  facet normal 0.000000e+00 0.000000e+00 1.000000e+00
    outer loop
      vertex   1.000000e+00 -3.900000e+01 4.000000e+00
      vertex   -1.000000e+00 -2.100000e+01 4.000000e+00
      vertex   -1.000000e+00 -3.900000e+01 4.000000e+00
    endloop
  endfacet
  facet normal 0.000000e+00 0.000000e+00 1.000000e+00
    outer loop
      vertex   1.000000e+00 -3.900000e+01 4.000000e+00
      vertex   -1.000000e+00 -3.900000e+01 4.000000e+00
      vertex   3.390000e+01 -4.125000e+01 4.000000e+00
    endloop
  endfacet
  facet normal 0.000000e+00 0.000000e+00 1.000000e+00
    outer loop
      vertex   3.390000e+01 -4.125000e+01 4.000000e+00
      vertex   -1.000000e+00 -3.900000e+01 4.000000e+00
      vertex   -3.390000e+01 -4.125000e+01 4.000000e+00
    endloop
  endfacet
  facet normal 0.000000e+00 0.000000e+00 1.000000e+00
    outer loop
      vertex   -3.390000e+01 -4.125000e+01 4.000000e+00
      vertex   -1.000000e+00 -3.900000e+01 4.000000e+00
      vertex   -3.100000e+01 -3.900000e+01 4.000000e+00
    endloop
  endfacet
  facet normal 0.000000e+00 0.000000e+00 1.000000e+00
    outer loop
      vertex   -3.390000e+01 -4.125000e+01 4.000000e+00
      vertex   -3.100000e+01 -3.900000e+01 4.000000e+00
      vertex   -3.100000e+01 -2.100000e+01 4.000000e+00
    endloop
  endfacet
  facet normal -0.000000e+00 0.000000e+00 1.000000e+00
    outer loop
      vertex   3.100000e+01 -1.200000e+01 4.000000e+00
      vertex   3.390000e+01 -4.125000e+01 4.000000e+00
      vertex   3.100000e+01 1.200000e+01 4.000000e+00
    endloop
  endfacet
  facet normal -0.000000e+00 0.000000e+00 1.000000e+00
    outer loop
      vertex   3.100000e+01 1.200000e+01 4.000000e+00
      vertex   3.390000e+01 -4.125000e+01 4.000000e+00
      vertex   3.390000e+01 4.125000e+01 4.000000e+00
    endloop
  endfacet
  facet normal 0.000000e+00 0.000000e+00 1.000000e+00
    outer loop
      vertex   3.100000e+01 1.200000e+01 4.000000e+00
      vertex   3.390000e+01 4.125000e+01 4.000000e+00
      vertex   3.100000e+01 2.100000e+01 4.000000e+00
    endloop
  endfacet
  facet normal 0.000000e+00 0.000000e+00 1.000000e+00
    outer loop
      vertex   3.100000e+01 2.100000e+01 4.000000e+00
      vertex   3.390000e+01 4.125000e+01 4.000000e+00
      vertex   3.100000e+01 3.800000e+01 4.000000e+00
    endloop
  endfacet
  facet normal 0.000000e+00 -0.000000e+00 1.000000e+00
    outer loop
      vertex   3.100000e+01 3.800000e+01 4.000000e+00
      vertex   3.390000e+01 4.125000e+01 4.000000e+00
      vertex   1.000000e+00 3.800000e+01 4.000000e+00
    endloop
  endfacet
  facet normal 0.000000e+00 -0.000000e+00 1.000000e+00
    outer loop
      vertex   1.000000e+00 3.800000e+01 4.000000e+00
      vertex   3.390000e+01 4.125000e+01 4.000000e+00
      vertex   -3.390000e+01 4.125000e+01 4.000000e+00
    endloop
  endfacet
  facet normal 0.000000e+00 0.000000e+00 1.000000e+00
    outer loop
      vertex   1.000000e+00 3.800000e+01 4.000000e+00
      vertex   -3.390000e+01 4.125000e+01 4.000000e+00
      vertex   -1.000000e+00 3.800000e+01 4.000000e+00
    endloop
  endfacet
  facet normal 0.000000e+00 0.000000e+00 1.000000e+00
    outer loop
      vertex   -1.000000e+00 3.800000e+01 4.000000e+00
      vertex   -3.390000e+01 4.125000e+01 4.000000e+00
      vertex   -3.100000e+01 3.800000e+01 4.000000e+00
    endloop
  endfacet
  facet normal 0.000000e+00 0.000000e+00 1.000000e+00
    outer loop
      vertex   -3.100000e+01 3.800000e+01 4.000000e+00
      vertex   -3.390000e+01 4.125000e+01 4.000000e+00
      vertex   -3.100000e+01 2.100000e+01 4.000000e+00
    endloop
  endfacet
  facet normal 0.000000e+00 0.000000e+00 1.000000e+00
    outer loop
      vertex   -3.100000e+01 2.100000e+01 4.000000e+00
      vertex   -3.390000e+01 4.125000e+01 4.000000e+00
      vertex   -3.100000e+01 1.200000e+01 4.000000e+00
    endloop
  endfacet
  facet normal 0.000000e+00 0.000000e+00 1.000000e+00
    outer loop
      vertex   -3.100000e+01 2.100000e+01 4.000000e+00
      vertex   -3.100000e+01 1.200000e+01 4.000000e+00
      vertex   -2.915959e+01 1.790759e+01 4.000000e+00
    endloop
  endfacet
  facet normal 0.000000e+00 0.000000e+00 1.000000e+00
    outer loop
      vertex   -2.915959e+01 1.790759e+01 4.000000e+00
      vertex   -3.100000e+01 1.200000e+01 4.000000e+00
      vertex   -2.914031e+01 1.455901e+01 4.000000e+00
    endloop
  endfacet
  facet normal 0.000000e+00 0.000000e+00 1.000000e+00
    outer loop
      vertex   -2.914031e+01 1.455901e+01 4.000000e+00
      vertex   -3.100000e+01 1.200000e+01 4.000000e+00
      vertex   -2.623072e+01 1.290142e+01 4.000000e+00
    endloop
  endfacet
  facet normal 0.000000e+00 0.000000e+00 1.000000e+00
    outer loop
      vertex   -2.623072e+01 1.290142e+01 4.000000e+00
      vertex   -3.100000e+01 1.200000e+01 4.000000e+00
      vertex   -2.400000e+01 1.200000e+01 4.000000e+00
    endloop
  endfacet
  facet normal -0.000000e+00 0.000000e+00 1.000000e+00
    outer loop
      vertex   -2.623072e+01 1.290142e+01 4.000000e+00
      vertex   -2.400000e+01 1.200000e+01 4.000000e+00
      vertex   -2.334041e+01 1.459241e+01 4.000000e+00
    endloop
  endfacet
  facet normal 0.000000e+00 0.000000e+00 1.000000e+00
    outer loop
      vertex   -2.334041e+01 1.459241e+01 4.000000e+00
      vertex   -2.400000e+01 1.200000e+01 4.000000e+00
      vertex   -2.200000e+01 1.000000e+00 4.000000e+00
    endloop
  endfacet
  facet normal -0.000000e+00 0.000000e+00 1.000000e+00
    outer loop
      vertex   -2.334041e+01 1.459241e+01 4.000000e+00
      vertex   -2.200000e+01 1.000000e+00 4.000000e+00
      vertex   -2.200000e+01 1.900000e+01 4.000000e+00
    endloop
  endfacet
  facet normal -0.000000e+00 0.000000e+00 1.000000e+00
    outer loop
      vertex   -3.100000e+01 2.100000e+01 4.000000e+00
      vertex   -2.200000e+01 1.900000e+01 4.000000e+00
      vertex   -1.000000e+00 2.100000e+01 4.000000e+00
    endloop
  endfacet
  facet normal 0.000000e+00 0.000000e+00 1.000000e+00
    outer loop
      vertex   -1.000000e+00 2.100000e+01 4.000000e+00
      vertex   -2.200000e+01 1.900000e+01 4.000000e+00
      vertex   -1.000000e+00 1.900000e+01 4.000000e+00
    endloop
  endfacet
  facet normal 0.000000e+00 0.000000e+00 1.000000e+00
    outer loop
      vertex   -1.000000e+00 2.100000e+01 4.000000e+00
      vertex   -1.000000e+00 1.900000e+01 4.000000e+00
      vertex   1.000000e+00 1.900000e+01 4.000000e+00
    endloop
  endfacet
  facet normal 0.000000e+00 0.000000e+00 1.000000e+00
    outer loop
      vertex   1.000000e+00 1.900000e+01 4.000000e+00
      vertex   -1.000000e+00 1.900000e+01 4.000000e+00
      vertex   1.000000e+00 1.000000e+00 4.000000e+00
    endloop
  endfacet
  facet normal 0.000000e+00 0.000000e+00 1.000000e+00
    outer loop
      vertex   1.000000e+00 1.000000e+00 4.000000e+00
      vertex   -1.000000e+00 1.900000e+01 4.000000e+00
      vertex   -1.000000e+00 1.000000e+00 4.000000e+00
    endloop
  endfacet
  facet normal 0.000000e+00 0.000000e+00 1.000000e+00
    outer loop
      vertex   1.000000e+00 3.800000e+01 4.000000e+00
      vertex   -1.000000e+00 3.800000e+01 4.000000e+00
      vertex   1.000000e+00 2.100000e+01 4.000000e+00
    endloop
  endfacet
  facet normal 0.000000e+00 0.000000e+00 1.000000e+00
    outer loop
      vertex   1.000000e+00 2.100000e+01 4.000000e+00
      vertex   -1.000000e+00 3.800000e+01 4.000000e+00
      vertex   -1.000000e+00 2.100000e+01 4.000000e+00
    endloop
  endfacet
  facet normal 0.000000e+00 0.000000e+00 1.000000e+00
    outer loop
      vertex   1.000000e+00 2.100000e+01 4.000000e+00
      vertex   -1.000000e+00 2.100000e+01 4.000000e+00
      vertex   1.000000e+00 1.900000e+01 4.000000e+00
    endloop
  endfacet
  facet normal 0.000000e+00 0.000000e+00 1.000000e+00
    outer loop
      vertex   -3.100000e+01 -2.100000e+01 4.000000e+00
      vertex   -1.000000e+00 -2.100000e+01 4.000000e+00
      vertex   -2.200000e+01 -1.900000e+01 4.000000e+00
    endloop
  endfacet
  facet normal -0.000000e+00 0.000000e+00 1.000000e+00
    outer loop
      vertex   -2.200000e+01 -1.900000e+01 4.000000e+00
      vertex   -1.000000e+00 -2.100000e+01 4.000000e+00
      vertex   -1.000000e+00 -1.900000e+01 4.000000e+00
    endloop
  endfacet
  facet normal 0.000000e+00 0.000000e+00 1.000000e+00
    outer loop
      vertex   1.000000e+00 1.900000e+01 4.000000e+00
      vertex   2.200000e+01 1.900000e+01 4.000000e+00
      vertex   1.000000e+00 2.100000e+01 4.000000e+00
    endloop
  endfacet
  facet normal -0.000000e+00 0.000000e+00 1.000000e+00
    outer loop
      vertex   1.000000e+00 2.100000e+01 4.000000e+00
      vertex   2.200000e+01 1.900000e+01 4.000000e+00
      vertex   3.100000e+01 2.100000e+01 4.000000e+00
    endloop
  endfacet
  facet normal 0.000000e+00 0.000000e+00 1.000000e+00
    outer loop
      vertex   2.200000e+01 1.000000e+00 4.000000e+00
      vertex   1.000000e+00 1.000000e+00 4.000000e+00
      vertex   2.200000e+01 -1.000000e+00 4.000000e+00
    endloop
  endfacet
  facet normal 0.000000e+00 0.000000e+00 1.000000e+00
    outer loop
      vertex   -3.100000e+01 1.200000e+01 4.000000e+00
      vertex   -3.390000e+01 4.125000e+01 4.000000e+00
      vertex   -3.100000e+01 -1.100000e+01 4.000000e+00
    endloop
  endfacet
  facet normal 0.000000e+00 0.000000e+00 1.000000e+00
    outer loop
      vertex   -3.100000e+01 -1.100000e+01 4.000000e+00
      vertex   -3.390000e+01 4.125000e+01 4.000000e+00
      vertex   -3.390000e+01 -4.125000e+01 4.000000e+00
    endloop
  endfacet
  facet normal 0.000000e+00 0.000000e+00 1.000000e+00
    outer loop
      vertex   -3.100000e+01 -1.100000e+01 4.000000e+00
      vertex   -3.390000e+01 -4.125000e+01 4.000000e+00
      vertex   -3.100000e+01 -2.100000e+01 4.000000e+00
    endloop
  endfacet
  facet normal 0.000000e+00 0.000000e+00 1.000000e+00
    outer loop
      vertex   -2.400000e+01 1.200000e+01 4.000000e+00
      vertex   -2.400000e+01 -1.100000e+01 4.000000e+00
      vertex   -2.200000e+01 1.000000e+00 4.000000e+00
    endloop
  endfacet
  facet normal 0.000000e+00 0.000000e+00 1.000000e+00
    outer loop
      vertex   3.100000e+01 -1.200000e+01 4.000000e+00
      vertex   3.100000e+01 -2.100000e+01 4.000000e+00
      vertex   3.390000e+01 -4.125000e+01 4.000000e+00
    endloop
  endfacet
  facet normal 0.000000e+00 0.000000e+00 1.000000e+00
    outer loop
      vertex   3.390000e+01 -4.125000e+01 4.000000e+00
      vertex   3.100000e+01 -2.100000e+01 4.000000e+00
      vertex   3.100000e+01 -3.900000e+01 4.000000e+00
    endloop
  endfacet
  facet normal 0.000000e+00 0.000000e+00 1.000000e+00
    outer loop
      vertex   3.390000e+01 -4.125000e+01 4.000000e+00
      vertex   3.100000e+01 -3.900000e+01 4.000000e+00
      vertex   1.000000e+00 -3.900000e+01 4.000000e+00
    endloop
  endfacet
  facet normal 0.000000e+00 0.000000e+00 1.000000e+00
    outer loop
      vertex   2.627372e+01 -1.959855e+01 4.000000e+00
      vertex   2.336193e+01 -1.794481e+01 4.000000e+00
      vertex   2.200000e+01 -1.900000e+01 4.000000e+00
    endloop
  endfacet
  facet normal 0.000000e+00 0.000000e+00 1.000000e+00
    outer loop
      vertex   2.200000e+01 -1.900000e+01 4.000000e+00
      vertex   2.336193e+01 -1.794481e+01 4.000000e+00
      vertex   2.333821e+01 -1.459626e+01 4.000000e+00
    endloop
  endfacet
  facet normal 0.000000e+00 0.000000e+00 1.000000e+00
    outer loop
      vertex   -2.626928e+01 1.959858e+01 4.000000e+00
      vertex   -2.335969e+01 1.794099e+01 4.000000e+00
      vertex   -2.200000e+01 1.900000e+01 4.000000e+00
    endloop
  endfacet
  facet normal 0.000000e+00 0.000000e+00 1.000000e+00
    outer loop
      vertex   -2.200000e+01 1.900000e+01 4.000000e+00
      vertex   -2.335969e+01 1.794099e+01 4.000000e+00
      vertex   -2.334041e+01 1.459241e+01 4.000000e+00
    endloop
  endfacet
  facet normal 0.000000e+00 -0.000000e+00 1.000000e+00
    outer loop
      vertex   -2.915959e+01 1.790759e+01 4.000000e+00
      vertex   -2.626928e+01 1.959858e+01 4.000000e+00
      vertex   -3.100000e+01 2.100000e+01 4.000000e+00
    endloop
  endfacet
  facet normal 0.000000e+00 0.000000e+00 1.000000e+00
    outer loop
      vertex   -3.100000e+01 2.100000e+01 4.000000e+00
      vertex   -2.626928e+01 1.959858e+01 4.000000e+00
      vertex   -2.200000e+01 1.900000e+01 4.000000e+00
    endloop
  endfacet
endsolid
