solid ASCII
  facet normal -1.000000e+00 0.000000e+00 0.000000e+00
    outer loop
      vertex   8.000000e+00 -9.000000e+00 2.260000e+01
      vertex   8.000000e+00 -9.000000e+00 2.460000e+01
      vertex   8.000000e+00 9.000000e+00 2.260000e+01
    endloop
  endfacet
  facet normal -1.000000e+00 0.000000e+00 0.000000e+00
    outer loop
      vertex   8.000000e+00 9.000000e+00 2.260000e+01
      vertex   8.000000e+00 -9.000000e+00 2.460000e+01
      vertex   8.000000e+00 9.000000e+00 2.460000e+01
    endloop
  endfacet
  facet normal 0.000000e+00 0.000000e+00 -1.000000e+00
    outer loop
      vertex   1.000000e+01 -9.000000e+00 2.260000e+01
      vertex   8.000000e+00 -9.000000e+00 2.260000e+01
      vertex   1.000000e+01 9.000000e+00 2.260000e+01
    endloop
  endfacet
  facet normal -0.000000e+00 0.000000e+00 -1.000000e+00
    outer loop
      vertex   1.000000e+01 9.000000e+00 2.260000e+01
      vertex   8.000000e+00 -9.000000e+00 2.260000e+01
      vertex   8.000000e+00 9.000000e+00 2.260000e+01
    endloop
  endfacet
  facet normal 0.000000e+00 0.000000e+00 1.000000e+00
    outer loop
      vertex   8.000000e+00 -9.000000e+00 2.460000e+01
      vertex   1.200000e+01 -9.000000e+00 2.460000e+01
      vertex   8.000000e+00 9.000000e+00 2.460000e+01
    endloop
  endfacet
  facet normal -0.000000e+00 0.000000e+00 1.000000e+00
    outer loop
      vertex   8.000000e+00 9.000000e+00 2.460000e+01
      vertex   1.200000e+01 -9.000000e+00 2.460000e+01
      vertex   1.200000e+01 9.000000e+00 2.460000e+01
    endloop
  endfacet
  facet normal 0.000000e+00 0.000000e+00 -1.000000e+00
    outer loop
      vertex   -1.000000e+01 9.000000e+00 2.260000e+01
      vertex   -8.000000e+00 9.000000e+00 2.260000e+01
      vertex   -1.000000e+01 -9.000000e+00 2.260000e+01
    endloop
  endfacet
  facet normal 0.000000e+00 0.000000e+00 -1.000000e+00
    outer loop
      vertex   -1.000000e+01 -9.000000e+00 2.260000e+01
      vertex   -8.000000e+00 9.000000e+00 2.260000e+01
      vertex   -8.000000e+00 -9.000000e+00 2.260000e+01
    endloop
  endfacet
  facet normal 1.000000e+00 -0.000000e+00 0.000000e+00
    outer loop
      vertex   -8.000000e+00 -9.000000e+00 2.460000e+01
      vertex   -8.000000e+00 -9.000000e+00 2.260000e+01
      vertex   -8.000000e+00 9.000000e+00 2.460000e+01
    endloop
  endfacet
  facet normal 1.000000e+00 0.000000e+00 0.000000e+00
    outer loop
      vertex   -8.000000e+00 9.000000e+00 2.460000e+01
      vertex   -8.000000e+00 -9.000000e+00 2.260000e+01
      vertex   -8.000000e+00 9.000000e+00 2.260000e+01
    endloop
  endfacet
  facet normal 0.000000e+00 0.000000e+00 1.000000e+00
    outer loop
      vertex   -1.200000e+01 -9.000000e+00 2.460000e+01
      vertex   -8.000000e+00 -9.000000e+00 2.460000e+01
      vertex   -1.200000e+01 9.000000e+00 2.460000e+01
    endloop
  endfacet
  facet normal -0.000000e+00 0.000000e+00 1.000000e+00
    outer loop
      vertex   -1.200000e+01 9.000000e+00 2.460000e+01
      vertex   -8.000000e+00 -9.000000e+00 2.460000e+01
      vertex   -8.000000e+00 9.000000e+00 2.460000e+01
    endloop
  endfacet
  facet normal -1.000000e+00 0.000000e+00 0.000000e+00
    outer loop
      vertex   1.000000e+01 9.000000e+00 2.000000e+00
      vertex   1.000000e+01 -9.000000e+00 2.000000e+00
      vertex   1.000000e+01 9.000000e+00 2.260000e+01
    endloop
  endfacet
  facet normal -1.000000e+00 -0.000000e+00 0.000000e+00
    outer loop
      vertex   1.000000e+01 9.000000e+00 2.260000e+01
      vertex   1.000000e+01 -9.000000e+00 2.000000e+00
      vertex   1.000000e+01 -9.000000e+00 2.260000e+01
    endloop
  endfacet
  facet normal 1.000000e+00 0.000000e+00 0.000000e+00
    outer loop
      vertex   1.200000e+01 -9.000000e+00 0.000000e+00
      vertex   1.200000e+01 9.000000e+00 0.000000e+00
      vertex   1.200000e+01 -9.000000e+00 2.460000e+01
    endloop
  endfacet
  facet normal 1.000000e+00 -0.000000e+00 0.000000e+00
    outer loop
      vertex   1.200000e+01 -9.000000e+00 2.460000e+01
      vertex   1.200000e+01 9.000000e+00 0.000000e+00
      vertex   1.200000e+01 9.000000e+00 2.460000e+01
    endloop
  endfacet
  facet normal 1.000000e+00 0.000000e+00 0.000000e+00
    outer loop
      vertex   -1.000000e+01 -9.000000e+00 2.000000e+00
      vertex   -1.000000e+01 9.000000e+00 2.000000e+00
      vertex   -1.000000e+01 -9.000000e+00 2.260000e+01
    endloop
  endfacet
  facet normal 1.000000e+00 -0.000000e+00 0.000000e+00
    outer loop
      vertex   -1.000000e+01 -9.000000e+00 2.260000e+01
      vertex   -1.000000e+01 9.000000e+00 2.000000e+00
      vertex   -1.000000e+01 9.000000e+00 2.260000e+01
    endloop
  endfacet
  facet normal -1.000000e+00 0.000000e+00 0.000000e+00
    outer loop
      vertex   -1.200000e+01 9.000000e+00 0.000000e+00
      vertex   -1.200000e+01 -9.000000e+00 0.000000e+00
      vertex   -1.200000e+01 9.000000e+00 2.460000e+01
    endloop
  endfacet
  facet normal -1.000000e+00 -0.000000e+00 0.000000e+00
    outer loop
      vertex   -1.200000e+01 9.000000e+00 2.460000e+01
      vertex   -1.200000e+01 -9.000000e+00 0.000000e+00
      vertex   -1.200000e+01 -9.000000e+00 2.460000e+01
    endloop
  endfacet
  facet normal -5.587935e-09 -1.000000e+00 -5.587935e-09
    outer loop
      vertex   1.200000e+01 -9.000000e+00 0.000000e+00
      vertex   1.000000e+01 -9.000000e+00 2.000000e+00
      vertex   -1.200000e+01 -9.000000e+00 0.000000e+00
    endloop
  endfacet
  facet normal -6.705522e-09 -1.000000e+00 6.705522e-09
    outer loop
      vertex   -1.200000e+01 -9.000000e+00 0.000000e+00
      vertex   1.000000e+01 -9.000000e+00 2.000000e+00
      vertex   -1.000000e+01 -9.000000e+00 2.000000e+00
    endloop
  endfacet
  facet normal 0.000000e+00 -1.000000e+00 0.000000e+00
    outer loop
      vertex   -1.200000e+01 -9.000000e+00 0.000000e+00
      vertex   -1.000000e+01 -9.000000e+00 2.000000e+00
      vertex   -1.000000e+01 -9.000000e+00 2.260000e+01
    endloop
  endfacet
  facet normal -8.881783e-16 -1.000000e+00 0.000000e+00
    outer loop
      vertex   1.000000e+01 -9.000000e+00 2.000000e+00
      vertex   1.200000e+01 -9.000000e+00 0.000000e+00
      vertex   1.000000e+01 -9.000000e+00 2.260000e+01
    endloop
  endfacet
  facet normal 6.160357e-08 -1.000000e+00 5.451644e-09
    outer loop
      vertex   1.000000e+01 -9.000000e+00 2.260000e+01
      vertex   1.200000e+01 -9.000000e+00 0.000000e+00
      vertex   1.200000e+01 -9.000000e+00 2.460000e+01
    endloop
  endfacet
  facet normal 0.000000e+00 -1.000000e+00 6.705522e-08
    outer loop
      vertex   1.000000e+01 -9.000000e+00 2.260000e+01
      vertex   1.200000e+01 -9.000000e+00 2.460000e+01
      vertex   8.000000e+00 -9.000000e+00 2.460000e+01
    endloop
  endfacet
  facet normal -6.705523e-08 -1.000000e+00 -0.000000e+00
    outer loop
      vertex   8.000000e+00 -9.000000e+00 2.460000e+01
      vertex   8.000000e+00 -9.000000e+00 2.260000e+01
      vertex   1.000000e+01 -9.000000e+00 2.260000e+01
    endloop
  endfacet
  facet normal 0.000000e+00 -1.000000e+00 0.000000e+00
    outer loop
      vertex   -8.000000e+00 -9.000000e+00 2.260000e+01
      vertex   -8.000000e+00 -9.000000e+00 2.460000e+01
      vertex   -1.000000e+01 -9.000000e+00 2.260000e+01
    endloop
  endfacet
  facet normal 0.000000e+00 -1.000000e+00 0.000000e+00
    outer loop
      vertex   -1.000000e+01 -9.000000e+00 2.260000e+01
      vertex   -8.000000e+00 -9.000000e+00 2.460000e+01
      vertex   -1.200000e+01 -9.000000e+00 2.460000e+01
    endloop
  endfacet
  facet normal -0.000000e+00 -1.000000e+00 0.000000e+00
    outer loop
      vertex   -1.000000e+01 -9.000000e+00 2.260000e+01
      vertex   -1.200000e+01 -9.000000e+00 2.460000e+01
      vertex   -1.200000e+01 -9.000000e+00 0.000000e+00
    endloop
  endfacet
  facet normal 0.000000e+00 1.000000e+00 0.000000e+00
    outer loop
      vertex   -1.200000e+01 9.000000e+00 0.000000e+00
      vertex   1.000000e+01 9.000000e+00 2.000000e+00
      vertex   1.200000e+01 9.000000e+00 0.000000e+00
    endloop
  endfacet
  facet normal 0.000000e+00 1.000000e+00 0.000000e+00
    outer loop
      vertex   1.200000e+01 9.000000e+00 0.000000e+00
      vertex   1.000000e+01 9.000000e+00 2.000000e+00
      vertex   1.000000e+01 9.000000e+00 2.260000e+01
    endloop
  endfacet
  facet normal 0.000000e+00 1.000000e+00 -0.000000e+00
    outer loop
      vertex   1.200000e+01 9.000000e+00 0.000000e+00
      vertex   1.000000e+01 9.000000e+00 2.260000e+01
      vertex   1.200000e+01 9.000000e+00 2.460000e+01
    endloop
  endfacet
  facet normal 0.000000e+00 1.000000e+00 0.000000e+00
    outer loop
      vertex   1.200000e+01 9.000000e+00 2.460000e+01
      vertex   1.000000e+01 9.000000e+00 2.260000e+01
      vertex   8.000000e+00 9.000000e+00 2.460000e+01
    endloop
  endfacet
  facet normal 0.000000e+00 1.000000e+00 0.000000e+00
    outer loop
      vertex   8.000000e+00 9.000000e+00 2.460000e+01
      vertex   1.000000e+01 9.000000e+00 2.260000e+01
      vertex   8.000000e+00 9.000000e+00 2.260000e+01
    endloop
  endfacet
  facet normal 0.000000e+00 1.000000e+00 0.000000e+00
    outer loop
      vertex   -1.200000e+01 9.000000e+00 2.460000e+01
      vertex   -1.000000e+01 9.000000e+00 2.260000e+01
      vertex   -1.200000e+01 9.000000e+00 0.000000e+00
    endloop
  endfacet
  facet normal 0.000000e+00 1.000000e+00 0.000000e+00
    outer loop
      vertex   -1.200000e+01 9.000000e+00 0.000000e+00
      vertex   -1.000000e+01 9.000000e+00 2.260000e+01
      vertex   -1.000000e+01 9.000000e+00 2.000000e+00
    endloop
  endfacet
  facet normal 0.000000e+00 1.000000e+00 0.000000e+00
    outer loop
      vertex   -1.200000e+01 9.000000e+00 0.000000e+00
      vertex   -1.000000e+01 9.000000e+00 2.000000e+00
      vertex   1.000000e+01 9.000000e+00 2.000000e+00
    endloop
  endfacet
  facet normal -0.000000e+00 1.000000e+00 0.000000e+00
    outer loop
      vertex   -1.200000e+01 9.000000e+00 2.460000e+01
      vertex   -8.000000e+00 9.000000e+00 2.460000e+01
      vertex   -1.000000e+01 9.000000e+00 2.260000e+01
    endloop
  endfacet
  facet normal 0.000000e+00 1.000000e+00 0.000000e+00
    outer loop
      vertex   -1.000000e+01 9.000000e+00 2.260000e+01
      vertex   -8.000000e+00 9.000000e+00 2.460000e+01
      vertex   -8.000000e+00 9.000000e+00 2.260000e+01
    endloop
  endfacet
  facet normal 0.000000e+00 -0.000000e+00 1.000000e+00
    outer loop
      vertex   1.000000e+01 -9.000000e+00 2.000000e+00
      vertex   1.000000e+01 9.000000e+00 2.000000e+00
      vertex   -1.000000e+01 -9.000000e+00 2.000000e+00
    endloop
  endfacet
  facet normal 0.000000e+00 0.000000e+00 1.000000e+00
    outer loop
      vertex   -1.000000e+01 -9.000000e+00 2.000000e+00
      vertex   1.000000e+01 9.000000e+00 2.000000e+00
      vertex   -1.000000e+01 9.000000e+00 2.000000e+00
    endloop
  endfacet
  facet normal 0.000000e+00 0.000000e+00 -1.000000e+00
    outer loop
      vertex   1.200000e+01 -9.000000e+00 0.000000e+00
      vertex   -1.200000e+01 -9.000000e+00 0.000000e+00
      vertex   1.200000e+01 9.000000e+00 0.000000e+00
    endloop
  endfacet
  facet normal -0.000000e+00 0.000000e+00 -1.000000e+00
    outer loop
      vertex   1.200000e+01 9.000000e+00 0.000000e+00
      vertex   -1.200000e+01 -9.000000e+00 0.000000e+00
      vertex   -1.200000e+01 9.000000e+00 0.000000e+00
    endloop
  endfacet
endsolid
